<svg xmlns="http://www.w3.org/2000/svg" xmlns:xlink="http://www.w3.org/1999/xlink" width="1030" height="230.3" viewBox="0 0 1030 230.3">
  <defs>
    <clipPath id="clip-path">
      <rect id="Rectángulo_295688" data-name="Rectángulo 295688" width="1030" height="182.8" fill="none"/>
    </clipPath>
  </defs>
  <g id="Grupo_179516" data-name="Grupo 179516" transform="translate(-285 -3424.5)">
    <path id="Trazado_268633" data-name="Trazado 268633" d="M136.417,16.77h-6.08V23h-3.771V7.359h10.463v2.911h-6.692v3.6h6.08Zm8.766-2.116-1.192-.086a2.142,2.142,0,0,0-2.191,1.074V23h-3.62V11.377h3.395l.118,1.493a2.8,2.8,0,0,1,2.546-1.708,3.53,3.53,0,0,1,1.01.129Zm6.929,8.562a5.975,5.975,0,0,1-4.329-1.6,5.509,5.509,0,0,1-1.654-4.152v-.3a7.138,7.138,0,0,1,.661-3.147,4.834,4.834,0,0,1,1.928-2.111,5.821,5.821,0,0,1,3.008-.747,5.031,5.031,0,0,1,3.867,1.52,5.973,5.973,0,0,1,1.418,4.238v1.407h-7.2a2.609,2.609,0,0,0,.849,1.536,2.525,2.525,0,0,0,1.7.559,3.254,3.254,0,0,0,2.686-1.2l1.654,1.955a4.624,4.624,0,0,1-1.917,1.488A6.48,6.48,0,0,1,152.111,23.215Zm-.408-9.26q-1.59,0-1.891,2.105h3.652v-.279a1.793,1.793,0,0,0-.44-1.348A1.753,1.753,0,0,0,151.7,13.955Zm12.848,5.779a.836.836,0,0,0-.483-.741,7.353,7.353,0,0,0-1.837-.58,8.376,8.376,0,0,1-2.234-.79,3.743,3.743,0,0,1-1.343-1.187,2.835,2.835,0,0,1-.462-1.6,3.212,3.212,0,0,1,1.321-2.637,5.443,5.443,0,0,1,3.459-1.037,6.03,6.03,0,0,1,3.7,1.042,3.258,3.258,0,0,1,1.4,2.739h-3.631q0-1.4-1.472-1.4a1.459,1.459,0,0,0-.956.317.981.981,0,0,0-.387.79.9.9,0,0,0,.473.784,4.466,4.466,0,0,0,1.509.494,13.042,13.042,0,0,1,1.821.462q2.621.9,2.621,3.233a3.044,3.044,0,0,1-1.413,2.589,6.2,6.2,0,0,1-3.658,1,6.322,6.322,0,0,1-2.664-.537,4.455,4.455,0,0,1-1.826-1.461,3.308,3.308,0,0,1-.655-1.944h3.384a1.4,1.4,0,0,0,.537,1.176,2.209,2.209,0,0,0,1.321.371,1.738,1.738,0,0,0,1.112-.3A.962.962,0,0,0,164.551,19.734ZM176.281,23a4.088,4.088,0,0,1-.344-1.042,3.366,3.366,0,0,1-2.793,1.257,4.124,4.124,0,0,1-2.793-.994,3.163,3.163,0,0,1-1.149-2.5,3.251,3.251,0,0,1,1.4-2.857,7.114,7.114,0,0,1,4.061-.967h1.117v-.615q0-1.608-1.386-1.608A1.133,1.133,0,0,0,173.1,14.95h-3.62a3.245,3.245,0,0,1,1.434-2.736,6.027,6.027,0,0,1,3.658-1.051,5.284,5.284,0,0,1,3.513,1.085,3.772,3.772,0,0,1,1.321,2.976v5.146a5.269,5.269,0,0,0,.494,2.449V23Zm-2.267-2.363a2.019,2.019,0,0,0,1.123-.29,1.818,1.818,0,0,0,.639-.655V17.833h-1.053q-1.891,0-1.891,1.7a1.036,1.036,0,0,0,.333.8A1.205,1.205,0,0,0,174.015,20.637Zm6.939-3.534a7.1,7.1,0,0,1,1.192-4.351,3.925,3.925,0,0,1,3.33-1.59,3.338,3.338,0,0,1,2.621,1.225V6.5h3.631V23h-3.255l-.183-1.246a3.428,3.428,0,0,1-2.836,1.461,3.918,3.918,0,0,1-3.287-1.59A7.325,7.325,0,0,1,180.954,17.1Zm3.62.226q0,3.094,1.8,3.094a1.782,1.782,0,0,0,1.719-1.01V14.986a1.734,1.734,0,0,0-1.7-1.031q-1.676,0-1.815,2.707Zm8.755-.247a6.86,6.86,0,0,1,.677-3.1,4.84,4.84,0,0,1,1.944-2.089,5.856,5.856,0,0,1,2.976-.73,5.344,5.344,0,0,1,4.114,1.617,6.2,6.2,0,0,1,1.5,4.4v.129a6.019,6.019,0,0,1-1.509,4.313,5.359,5.359,0,0,1-4.087,1.6,5.42,5.42,0,0,1-3.985-1.488,5.819,5.819,0,0,1-1.622-4.034Zm3.62.226a4.325,4.325,0,0,0,.5,2.363,1.682,1.682,0,0,0,1.493.752q1.934,0,1.977-2.976v-.365q0-3.126-2-3.126-1.815,0-1.966,2.7Zm16.221-2.653-1.192-.086a2.142,2.142,0,0,0-2.191,1.074V23h-3.62V11.377h3.395l.118,1.493a2.8,2.8,0,0,1,2.546-1.708,3.53,3.53,0,0,1,1.01.129ZM220.7,23a4.088,4.088,0,0,1-.344-1.042,3.366,3.366,0,0,1-2.793,1.257,4.124,4.124,0,0,1-2.793-.994,3.163,3.163,0,0,1-1.149-2.5,3.251,3.251,0,0,1,1.4-2.857,7.114,7.114,0,0,1,4.061-.967H220.2v-.615q0-1.608-1.386-1.608a1.133,1.133,0,0,0-1.289,1.274H213.9a3.245,3.245,0,0,1,1.434-2.736,6.027,6.027,0,0,1,3.658-1.051,5.284,5.284,0,0,1,3.513,1.085,3.772,3.772,0,0,1,1.321,2.976v5.146a5.269,5.269,0,0,0,.494,2.449V23Zm-2.267-2.363a2.019,2.019,0,0,0,1.123-.29,1.818,1.818,0,0,0,.639-.655V17.833h-1.053q-1.891,0-1.891,1.7a1.036,1.036,0,0,0,.333.8A1.205,1.205,0,0,0,218.434,20.637Zm25.7-2.933a5.712,5.712,0,0,1-.881,2.884,5.316,5.316,0,0,1-2.261,1.939,7.7,7.7,0,0,1-3.325.688,6.142,6.142,0,0,1-4.855-2.009,8.294,8.294,0,0,1-1.772-5.672v-.773a9.467,9.467,0,0,1,.8-4.023,6.064,6.064,0,0,1,2.3-2.664,6.429,6.429,0,0,1,3.48-.94,6.741,6.741,0,0,1,4.576,1.5,5.921,5.921,0,0,1,1.966,4.13H240.4a2.8,2.8,0,0,0-.72-2.052,2.96,2.96,0,0,0-2.062-.623,2.252,2.252,0,0,0-2.062,1.053,6.766,6.766,0,0,0-.687,3.362v1.106a7.487,7.487,0,0,0,.628,3.577,2.3,2.3,0,0,0,2.165,1.074,2.9,2.9,0,0,0,1.987-.612,2.6,2.6,0,0,0,.73-1.944ZM258.975,23h-3.749l-5.543-9.732V23h-3.771V7.359h3.771l5.532,9.732V7.359h3.76Zm15.039-5.3a5.712,5.712,0,0,1-.881,2.884,5.316,5.316,0,0,1-2.261,1.939,7.7,7.7,0,0,1-3.325.688,6.142,6.142,0,0,1-4.855-2.009,8.294,8.294,0,0,1-1.772-5.672v-.773a9.467,9.467,0,0,1,.8-4.023,6.064,6.064,0,0,1,2.3-2.664,6.429,6.429,0,0,1,3.48-.94,6.741,6.741,0,0,1,4.576,1.5,5.921,5.921,0,0,1,1.966,4.13h-3.76a2.8,2.8,0,0,0-.72-2.052,2.96,2.96,0,0,0-2.062-.623,2.252,2.252,0,0,0-2.062,1.053,6.766,6.766,0,0,0-.687,3.362v1.106a7.487,7.487,0,0,0,.628,3.577,2.3,2.3,0,0,0,2.165,1.074,2.9,2.9,0,0,0,1.987-.612,2.6,2.6,0,0,0,.73-1.944Z" transform="translate(600 3418)" fill="#12263f"/>
    <g id="Grupo_178612" data-name="Grupo 178612" transform="translate(285 3472)">
      <g id="Grupo_178614" data-name="Grupo 178614" clip-path="url(#clip-path)">
        <path id="Trazado_267486" data-name="Trazado 267486" d="M92.673,180.307H29.662C13.306,180.307,0,167.672,0,152.143V32.481C0,16.951,13.306,4.317,29.662,4.317H92.673v2.33H29.662c-15,0-27.208,11.589-27.208,25.834V152.143c0,14.245,12.206,25.834,27.208,25.834H92.673Z" transform="translate(0 -0.912)" fill="#cfbdb0"/>
        <path id="Trazado_267487" data-name="Trazado 267487" d="M239.827,112.927l-20.138-11.04v22.079Z" transform="translate(-37.205 -21.527)" fill="#cfbdb0"/>
        <path id="Trazado_267488" data-name="Trazado 267488" d="M493.273,112.927l-20.138-11.04v22.079Z" transform="translate(-80.128 -21.527)" fill="#a2e6b0"/>
        <path id="Trazado_267489" data-name="Trazado 267489" d="M747.311,112.927l-20.138-11.04v22.079Z" transform="translate(-123.15 -21.527)" fill="#3d5075"/>
        <path id="Trazado_267490" data-name="Trazado 267490" d="M1000.167,112.927l-20.138-11.04v22.079Z" transform="translate(-165.973 -21.527)" fill="#48a5f0"/>
        <path id="Trazado_267491" data-name="Trazado 267491" d="M174.457,0H111.511V182.8h62.946c18.369,0,33.312-14.19,33.312-31.631V31.631C207.769,14.19,192.826,0,174.457,0" transform="translate(-18.885)" fill="#cfbdb0"/>
        <path id="Trazado_267492" data-name="Trazado 267492" d="M427.608,0H364.662V182.8h62.946c18.369,0,33.312-14.19,33.312-31.631V31.631C460.92,14.19,445.977,0,427.608,0" transform="translate(-61.757)" fill="#a2e6b0"/>
        <path id="Trazado_267493" data-name="Trazado 267493" d="M255.6,78.167h-2.454V32.481c0-15.53,13.306-28.164,29.661-28.164h63.012v2.33H282.812c-15,0-27.208,11.589-27.208,25.834Z" transform="translate(-42.872 -0.912)" fill="#a2e6b0"/>
        <path id="Trazado_267494" data-name="Trazado 267494" d="M256.831,97.079a2.771,2.771,0,1,1-2.768-2.628,2.7,2.7,0,0,1,2.768,2.628" transform="translate(-42.558 -19.956)" fill="#a2e6b0"/>
        <rect id="Rectángulo_295684" data-name="Rectángulo 295684" width="2.454" height="45.685" transform="translate(210.279 105.545)" fill="#a2e6b0"/>
        <path id="Trazado_267495" data-name="Trazado 267495" d="M256.831,133.282a2.771,2.771,0,1,0-2.768,2.628,2.7,2.7,0,0,0,2.768-2.628" transform="translate(-42.558 -27.605)" fill="#a2e6b0"/>
        <path id="Trazado_267496" data-name="Trazado 267496" d="M364.294,227h-.613a1.4,1.4,0,1,1,0-2.8h.613a1.4,1.4,0,1,1,0,2.8" transform="translate(-61.342 -47.371)" fill="#a2e6b0"/>
        <path id="Trazado_267497" data-name="Trazado 267497" d="M333.506,222.926h-1.224a1.4,1.4,0,1,1,0-2.8h1.224a1.4,1.4,0,1,1,0,2.8m-13.459,0h-1.224a1.4,1.4,0,1,1,0-2.8h1.224a1.4,1.4,0,1,1,0,2.8m-13.46,0h-1.224a1.4,1.4,0,1,1,0-2.8h1.224a1.4,1.4,0,1,1,0,2.8m-13.459,0h-1.223a1.4,1.4,0,1,1,0-2.8h1.223a1.4,1.4,0,1,1,0,2.8m-13.447-.222a1.527,1.527,0,0,1-.189-.012c-.422-.051-.851-.112-1.273-.181a1.407,1.407,0,0,1-1.2-1.615,1.466,1.466,0,0,1,1.7-1.14c.382.062.768.118,1.147.164a1.413,1.413,0,0,1,1.273,1.565,1.448,1.448,0,0,1-1.458,1.219m-12.452-4.528a1.523,1.523,0,0,1-.834-.247c-.351-.23-.7-.471-1.042-.715a1.35,1.35,0,0,1-.29-1.958,1.525,1.525,0,0,1,2.063-.274c.306.219.623.436.94.644a1.354,1.354,0,0,1,.377,1.944,1.5,1.5,0,0,1-1.214.6m-8.908-9.417a1.484,1.484,0,0,1-1.3-.733c-.2-.355-.4-.72-.587-1.085a1.366,1.366,0,0,1,.679-1.868,1.508,1.508,0,0,1,1.969.644c.169.33.347.659.529.979a1.362,1.362,0,0,1-.594,1.894,1.527,1.527,0,0,1-.7.169" transform="translate(-43.404 -43.299)" fill="#a2e6b0"/>
        <path id="Trazado_267498" data-name="Trazado 267498" d="M254.334,193.349a1.438,1.438,0,0,1-1.471-1.368c0-.2-.007-.408-.007-.612a1.474,1.474,0,0,1,2.944,0q0,.277.007.553a1.434,1.434,0,0,1-1.441,1.428h-.032" transform="translate(-42.822 -40.138)" fill="#a2e6b0"/>
        <path id="Trazado_267499" data-name="Trazado 267499" d="M680.759,0H617.813V182.8h62.946c18.369,0,33.312-14.19,33.312-31.631V31.631C714.071,14.19,699.128,0,680.759,0" transform="translate(-104.63)" fill="#3d5075"/>
        <path id="Trazado_267500" data-name="Trazado 267500" d="M507.479,33.816a1.436,1.436,0,0,1-1.472-1.4c0-.406.009-.818.027-1.223a1.447,1.447,0,0,1,1.533-1.338,1.429,1.429,0,0,1,1.408,1.456c-.017.366-.025.738-.025,1.1a1.436,1.436,0,0,1-1.472,1.4m3.134-12.336a1.521,1.521,0,0,1-.672-.155,1.364,1.364,0,0,1-.635-1.883c.2-.362.4-.725.616-1.078a1.516,1.516,0,0,1,2.009-.521,1.361,1.361,0,0,1,.549,1.907c-.192.319-.379.645-.556.972a1.483,1.483,0,0,1-1.31.759m8.737-9.61a1.5,1.5,0,0,1-1.2-.583,1.352,1.352,0,0,1,.337-1.95c.347-.237.705-.47,1.062-.692a1.52,1.52,0,0,1,2.038.4,1.355,1.355,0,0,1-.425,1.935c-.322.2-.645.41-.958.624a1.518,1.518,0,0,1-.857.263m12.383-4.762a1.451,1.451,0,0,1-1.454-1.195,1.412,1.412,0,0,1,1.243-1.587c.424-.059.855-.11,1.279-.152a1.455,1.455,0,0,1,1.616,1.247A1.417,1.417,0,0,1,533.1,6.954c-.383.038-.772.084-1.154.137a1.56,1.56,0,0,1-.217.016m55.193-.29H585.7a1.437,1.437,0,0,1-1.473-1.4,1.437,1.437,0,0,1,1.473-1.4h1.227a1.436,1.436,0,0,1,1.472,1.4,1.436,1.436,0,0,1-1.472,1.4m-13.5,0H572.2a1.436,1.436,0,0,1-1.472-1.4,1.436,1.436,0,0,1,1.472-1.4h1.227a1.437,1.437,0,0,1,1.473,1.4,1.437,1.437,0,0,1-1.473,1.4m-13.495,0h-1.227a1.437,1.437,0,0,1-1.473-1.4,1.437,1.437,0,0,1,1.473-1.4h1.227a1.437,1.437,0,0,1,1.472,1.4,1.437,1.437,0,0,1-1.472,1.4m-13.5,0h-1.227a1.436,1.436,0,0,1-1.472-1.4,1.436,1.436,0,0,1,1.472-1.4h1.227a1.437,1.437,0,0,1,1.472,1.4,1.436,1.436,0,0,1-1.472,1.4" transform="translate(-85.695 -0.85)" fill="#3d5075"/>
        <path id="Trazado_267519" data-name="Trazado 267519" d="M0,0H2.454V46.294H0Z" transform="translate(420.557 31.569)" fill="#3d5075"/>
        <path id="Trazado_267501" data-name="Trazado 267501" d="M509.982,97.851a2.771,2.771,0,1,1-2.768-2.628,2.7,2.7,0,0,1,2.768,2.628" transform="translate(-85.43 -20.119)" fill="#3d5075"/>
        <path id="Trazado_267502" data-name="Trazado 267502" d="M598.975,207.669H535.964c-16.355,0-29.662-12.634-29.662-28.164V133.819h2.454V179.5c0,14.245,12.205,25.834,27.209,25.834h63.011Z" transform="translate(-85.745 -28.274)" fill="#3d5075"/>
        <path id="Trazado_267503" data-name="Trazado 267503" d="M509.982,133.282a2.771,2.771,0,1,0-2.768,2.628,2.7,2.7,0,0,0,2.768-2.628" transform="translate(-85.43 -27.605)" fill="#3d5075"/>
        <path id="Trazado_267504" data-name="Trazado 267504" d="M933.91,0H870.964V182.8H933.91c18.369,0,33.312-14.19,33.312-31.631V31.631C967.222,14.19,952.279,0,933.91,0" transform="translate(-147.502)" fill="#48a5f0"/>
        <path id="Trazado_267505" data-name="Trazado 267505" d="M761.908,78.776h-2.454V32.481c0-15.53,13.306-28.164,29.661-28.164h63.012v2.33H789.115c-15,0-27.208,11.589-27.208,25.834Z" transform="translate(-128.617 -0.912)" fill="#48a5f0"/>
        <path id="Trazado_267506" data-name="Trazado 267506" d="M763.134,97.851a2.771,2.771,0,1,1-2.769-2.628,2.7,2.7,0,0,1,2.769,2.628" transform="translate(-128.303 -20.119)" fill="#48a5f0"/>
        <rect id="Rectángulo_295686" data-name="Rectángulo 295686" width="2.454" height="45.685" transform="translate(630.837 105.545)" fill="#48a5f0"/>
        <path id="Trazado_267507" data-name="Trazado 267507" d="M763.134,133.282a2.771,2.771,0,1,0-2.769,2.628,2.7,2.7,0,0,0,2.769-2.628" transform="translate(-128.303 -27.605)" fill="#48a5f0"/>
        <path id="Trazado_267508" data-name="Trazado 267508" d="M852.584,222.729h-1.227a1.4,1.4,0,1,1,0-2.8h1.227a1.4,1.4,0,1,1,0,2.8m-13.5,0h-1.227a1.4,1.4,0,1,1,0-2.8h1.227a1.4,1.4,0,1,1,0,2.8m-13.495,0h-1.227a1.4,1.4,0,1,1,0-2.8h1.227a1.4,1.4,0,1,1,0,2.8m-13.5,0h-1.227a1.4,1.4,0,1,1,0-2.8H812.1a1.4,1.4,0,1,1,0,2.8m-13.495,0h-1.227a1.4,1.4,0,1,1,0-2.8H798.6a1.4,1.4,0,1,1,0,2.8M785.13,222.4a1.626,1.626,0,0,1-.23-.017c-.422-.063-.85-.136-1.269-.216a1.4,1.4,0,0,1-1.153-1.647,1.472,1.472,0,0,1,1.734-1.094c.379.073.763.138,1.144.195a1.409,1.409,0,0,1,1.227,1.6,1.452,1.452,0,0,1-1.453,1.181m-12.343-4.875a1.52,1.52,0,0,1-.869-.271c-.347-.241-.692-.492-1.025-.745a1.35,1.35,0,0,1-.228-1.965,1.525,1.525,0,0,1,2.069-.217c.3.228.611.454.924.671a1.353,1.353,0,0,1,.318,1.954,1.5,1.5,0,0,1-1.189.572m-8.635-9.686a1.483,1.483,0,0,1-1.317-.77c-.192-.362-.378-.733-.553-1.1a1.371,1.371,0,0,1,.739-1.849,1.506,1.506,0,0,1,1.946.7c.158.334.326.669.5.995a1.366,1.366,0,0,1-.654,1.877,1.536,1.536,0,0,1-.66.149" transform="translate(-129.074 -43.101)" fill="#48a5f0"/>
        <path id="Trazado_267509" data-name="Trazado 267509" d="M1187.062,0h-62.946V182.8h62.946c18.369,0,33.312-14.19,33.312-31.631V31.631C1220.374,14.19,1205.431,0,1187.062,0" transform="translate(-190.374)" fill="#a5978c"/>
        <path id="Trazado_267510" data-name="Trazado 267510" d="M1013.782,33.816a1.436,1.436,0,0,1-1.472-1.4c0-.408.009-.819.027-1.223a1.449,1.449,0,0,1,1.533-1.338,1.43,1.43,0,0,1,1.409,1.456c-.017.364-.024.737-.024,1.1a1.437,1.437,0,0,1-1.473,1.4m3.134-12.336a1.521,1.521,0,0,1-.672-.155,1.364,1.364,0,0,1-.635-1.883c.2-.363.4-.726.615-1.078a1.515,1.515,0,0,1,2.009-.521,1.36,1.36,0,0,1,.548,1.907c-.191.318-.377.645-.555.972a1.483,1.483,0,0,1-1.31.759m8.737-9.61a1.5,1.5,0,0,1-1.2-.583,1.352,1.352,0,0,1,.337-1.95c.348-.237.706-.47,1.062-.692a1.521,1.521,0,0,1,2.038.4,1.355,1.355,0,0,1-.425,1.935c-.322.2-.645.41-.958.624a1.517,1.517,0,0,1-.857.263m12.382-4.762a1.45,1.45,0,0,1-1.454-1.195,1.411,1.411,0,0,1,1.242-1.587c.425-.059.855-.11,1.279-.152a1.456,1.456,0,0,1,1.617,1.247,1.418,1.418,0,0,1-1.313,1.534c-.383.038-.771.084-1.154.137a1.538,1.538,0,0,1-.216.016m55.193-.29H1092a1.437,1.437,0,0,1-1.473-1.4,1.437,1.437,0,0,1,1.473-1.4h1.227a1.437,1.437,0,0,1,1.472,1.4,1.436,1.436,0,0,1-1.472,1.4m-13.5,0h-1.227a1.436,1.436,0,0,1-1.472-1.4,1.436,1.436,0,0,1,1.472-1.4h1.227a1.437,1.437,0,0,1,1.473,1.4,1.437,1.437,0,0,1-1.473,1.4m-13.495,0h-1.227a1.437,1.437,0,0,1-1.473-1.4,1.437,1.437,0,0,1,1.473-1.4h1.227a1.437,1.437,0,0,1,1.472,1.4,1.437,1.437,0,0,1-1.472,1.4m-13.5,0h-1.227a1.436,1.436,0,0,1-1.472-1.4,1.436,1.436,0,0,1,1.472-1.4h1.227a1.437,1.437,0,0,1,1.472,1.4,1.436,1.436,0,0,1-1.472,1.4" transform="translate(-171.44 -0.85)" fill="#a5978c"/>
        <rect id="Rectángulo_295687" data-name="Rectángulo 295687" width="2.454" height="45.685" transform="translate(841.115 31.569)" fill="#a5978c"/>
        <path id="Trazado_267511" data-name="Trazado 267511" d="M1016.285,97.079a2.771,2.771,0,1,1-2.768-2.628,2.7,2.7,0,0,1,2.768,2.628" transform="translate(-171.175 -19.956)" fill="#a5978c"/>
        <path id="Trazado_267512" data-name="Trazado 267512" d="M1105.277,207.669h-63.011c-16.355,0-29.661-12.634-29.661-28.164V133.819h2.453V179.5c0,14.245,12.205,25.834,27.208,25.834h63.011Z" transform="translate(-171.49 -28.274)" fill="#a5978c"/>
        <path id="Trazado_267513" data-name="Trazado 267513" d="M1016.285,133.282a2.771,2.771,0,1,0-2.768,2.628,2.7,2.7,0,0,0,2.768-2.628" transform="translate(-171.175 -27.605)" fill="#a5978c"/>
        <path id="Trazado_267514" data-name="Trazado 267514" d="M178.377,39.568V149.474c0,13.7-11.694,24.8-26.117,24.8H36.512c-14.423,0-26.116-11.1-26.116-24.8V39.568c0-13.7,11.693-24.8,26.116-24.8H152.26c14.423,0,26.117,11.1,26.117,24.8" transform="translate(-1.761 -3.121)" fill="#f7f7f7"/>
        <path id="Trazado_267515" data-name="Trazado 267515" d="M431.528,39.568V149.474c0,13.7-11.693,24.8-26.116,24.8H289.663c-14.423,0-26.116-11.1-26.116-24.8V39.568c0-13.7,11.693-24.8,26.116-24.8H405.412c14.423,0,26.116,11.1,26.116,24.8" transform="translate(-44.547 -2.769)" fill="#f7f7f7"/>
        <path id="Trazado_267516" data-name="Trazado 267516" d="M684.679,39.568V149.474c0,13.7-11.693,24.8-26.116,24.8H542.814c-14.423,0-26.116-11.1-26.116-24.8V39.568c0-13.7,11.693-24.8,26.116-24.8H658.563c14.423,0,26.116,11.1,26.116,24.8" transform="translate(-87.505 -3.121)" fill="#f7f7f7"/>
        <path id="Trazado_267517" data-name="Trazado 267517" d="M937.83,39.568V149.474c0,13.7-11.693,24.8-26.116,24.8H795.965c-14.423,0-26.116-11.1-26.116-24.8V39.568c0-13.7,11.693-24.8,26.116-24.8H911.714c14.423,0,26.116,11.1,26.116,24.8" transform="translate(-130.378 -3.121)" fill="#f7f7f7"/>
        <path id="Trazado_267518" data-name="Trazado 267518" d="M1190.981,39.568V149.474c0,13.7-11.693,24.8-26.116,24.8H1049.116c-14.424,0-26.116-11.1-26.116-24.8V39.568c0-13.7,11.693-24.8,26.116-24.8h115.749c14.423,0,26.116,11.1,26.116,24.8" transform="translate(-173.25 -3.121)" fill="#f7f7f7"/>
      </g>
    </g>
    <path id="Trazado_268628" data-name="Trazado 268628" d="M62.752,14.737a4.528,4.528,0,0,1-1.525,3.252A5.355,5.355,0,0,1,57.6,19.176a4.816,4.816,0,0,1-3.872-1.657,6.793,6.793,0,0,1-1.411-4.548v-.782a7.671,7.671,0,0,1,.65-3.252,4.874,4.874,0,0,1,1.859-2.158,5.809,5.809,0,0,1,6.376.435,4.866,4.866,0,0,1,1.564,3.331H60.133a2.673,2.673,0,0,0-.69-1.8,2.555,2.555,0,0,0-1.806-.558,2.24,2.24,0,0,0-1.973.945,5.3,5.3,0,0,0-.672,2.931v.967a5.667,5.667,0,0,0,.628,3.032,2.2,2.2,0,0,0,1.982.958,2.6,2.6,0,0,0,1.824-.558,2.521,2.521,0,0,0,.69-1.727ZM69.828,19a2.821,2.821,0,0,1-.255-.853,3.073,3.073,0,0,1-2.4,1.028,3.376,3.376,0,0,1-2.316-.809,2.6,2.6,0,0,1-.918-2.039,2.687,2.687,0,0,1,1.121-2.32A5.529,5.529,0,0,1,68.3,13.19h1.169v-.545a1.567,1.567,0,0,0-.338-1.055,1.331,1.331,0,0,0-1.068-.4,1.513,1.513,0,0,0-1.006.308,1.045,1.045,0,0,0-.365.844H64.15a2.551,2.551,0,0,1,.51-1.529,3.37,3.37,0,0,1,1.441-1.1,5.253,5.253,0,0,1,2.092-.4,4.15,4.15,0,0,1,2.791.883,3.09,3.09,0,0,1,1.033,2.483V16.8a4.546,4.546,0,0,0,.378,2.048V19Zm-2.1-1.767a2.188,2.188,0,0,0,1.037-.25,1.645,1.645,0,0,0,.7-.672V14.676h-.949q-1.907,0-2.03,1.318l-.009.149a1.017,1.017,0,0,0,.334.782A1.3,1.3,0,0,0,67.727,17.233Zm14.81-2.9a5.758,5.758,0,0,1-.976,3.564,3.231,3.231,0,0,1-2.725,1.279,2.969,2.969,0,0,1-2.47-1.187L76.252,19H73.967V5.5h2.54v4.843a2.893,2.893,0,0,1,2.312-1.028,3.258,3.258,0,0,1,2.729,1.279,5.767,5.767,0,0,1,.989,3.6ZM80,14.148a3.783,3.783,0,0,0-.457-2.1,1.545,1.545,0,0,0-1.362-.664,1.676,1.676,0,0,0-1.67.993v3.753a1.7,1.7,0,0,0,1.688,1,1.568,1.568,0,0,0,1.617-1.213A6.257,6.257,0,0,0,80,14.148Zm8.481,5.027a4.668,4.668,0,0,1-3.406-1.283,4.561,4.561,0,0,1-1.314-3.419v-.246a5.745,5.745,0,0,1,.554-2.562,4.064,4.064,0,0,1,1.569-1.74A4.4,4.4,0,0,1,88.2,9.314a3.947,3.947,0,0,1,3.072,1.23,5,5,0,0,1,1.121,3.489v1.037H86.333a2.36,2.36,0,0,0,.743,1.494,2.245,2.245,0,0,0,1.569.563,2.742,2.742,0,0,0,2.294-1.063l1.248,1.4a3.813,3.813,0,0,1-1.547,1.261A5.075,5.075,0,0,1,88.478,19.176Zm-.29-7.813a1.587,1.587,0,0,0-1.226.512,2.651,2.651,0,0,0-.6,1.466h3.533v-.2a1.891,1.891,0,0,0-.457-1.311A1.638,1.638,0,0,0,88.188,11.362Zm8.561,5.59H101.4V19H93.505V17.453l4.474-5.915H93.637V9.49h7.62v1.5ZM108.5,19a2.821,2.821,0,0,1-.255-.853,3.073,3.073,0,0,1-2.4,1.028,3.376,3.376,0,0,1-2.316-.809,2.6,2.6,0,0,1-.918-2.039,2.687,2.687,0,0,1,1.121-2.32,5.529,5.529,0,0,1,3.239-.817h1.169v-.545a1.567,1.567,0,0,0-.338-1.055,1.331,1.331,0,0,0-1.068-.4,1.513,1.513,0,0,0-1.006.308,1.045,1.045,0,0,0-.365.844h-2.54a2.551,2.551,0,0,1,.51-1.529,3.37,3.37,0,0,1,1.441-1.1,5.253,5.253,0,0,1,2.092-.4,4.15,4.15,0,0,1,2.791.883,3.09,3.09,0,0,1,1.033,2.483V16.8a4.546,4.546,0,0,0,.378,2.048V19Zm-2.1-1.767a2.188,2.188,0,0,0,1.037-.25,1.645,1.645,0,0,0,.7-.672V14.676h-.949q-1.907,0-2.03,1.318l-.009.149a1.017,1.017,0,0,0,.334.782A1.3,1.3,0,0,0,106.4,17.233ZM115.32,19h-2.549V5.5h2.549Z" transform="translate(294 3552)" fill="#12263f"/>
    <path id="Trazado_268629" data-name="Trazado 268629" d="M54.209,6.2,57.5,15.484,60.766,6.2h3.463V19H61.583V15.5l.264-6.038L58.393,19H56.583L53.137,9.473,53.4,15.5V19H50.764V6.2ZM70.742,19.176a4.668,4.668,0,0,1-3.406-1.283,4.561,4.561,0,0,1-1.314-3.419v-.246a5.745,5.745,0,0,1,.554-2.562,4.064,4.064,0,0,1,1.569-1.74,4.4,4.4,0,0,1,2.316-.611,3.947,3.947,0,0,1,3.072,1.23,5,5,0,0,1,1.121,3.489v1.037H68.6a2.36,2.36,0,0,0,.743,1.494,2.245,2.245,0,0,0,1.569.563A2.742,2.742,0,0,0,73.2,16.064l1.248,1.4A3.813,3.813,0,0,1,72.9,18.723,5.075,5.075,0,0,1,70.742,19.176Zm-.29-7.813a1.587,1.587,0,0,0-1.226.512,2.651,2.651,0,0,0-.6,1.466h3.533v-.2a1.891,1.891,0,0,0-.457-1.311A1.638,1.638,0,0,0,70.452,11.362Zm10.793,5.01a.818.818,0,0,0-.461-.734,5.241,5.241,0,0,0-1.481-.479q-3.393-.712-3.393-2.883a2.613,2.613,0,0,1,1.05-2.114,4.237,4.237,0,0,1,2.747-.848,4.56,4.56,0,0,1,2.9.853,2.687,2.687,0,0,1,1.085,2.215h-2.54a1.229,1.229,0,0,0-.352-.9,1.488,1.488,0,0,0-1.1-.356,1.52,1.52,0,0,0-.993.29.916.916,0,0,0-.352.738.783.783,0,0,0,.4.681,4.114,4.114,0,0,0,1.349.448,11.019,11.019,0,0,1,1.6.426,2.628,2.628,0,0,1,2.013,2.558,2.481,2.481,0,0,1-1.116,2.1,4.815,4.815,0,0,1-2.883.8,5.029,5.029,0,0,1-2.123-.426,3.561,3.561,0,0,1-1.455-1.169,2.716,2.716,0,0,1-.527-1.6h2.408a1.326,1.326,0,0,0,.5,1.037,1.987,1.987,0,0,0,1.248.36,1.839,1.839,0,0,0,1.1-.277A.861.861,0,0,0,81.245,16.372ZM90.86,19a2.821,2.821,0,0,1-.255-.853,3.073,3.073,0,0,1-2.4,1.028,3.376,3.376,0,0,1-2.316-.809,2.6,2.6,0,0,1-.918-2.039,2.687,2.687,0,0,1,1.121-2.32,5.529,5.529,0,0,1,3.239-.817H90.5v-.545a1.567,1.567,0,0,0-.338-1.055,1.331,1.331,0,0,0-1.068-.4,1.513,1.513,0,0,0-1.006.308,1.045,1.045,0,0,0-.365.844h-2.54a2.551,2.551,0,0,1,.51-1.529,3.37,3.37,0,0,1,1.441-1.1,5.253,5.253,0,0,1,2.092-.4,4.15,4.15,0,0,1,2.791.883,3.09,3.09,0,0,1,1.033,2.483V16.8a4.546,4.546,0,0,0,.378,2.048V19Zm-2.1-1.767a2.188,2.188,0,0,0,1.037-.25,1.645,1.645,0,0,0,.7-.672V14.676H89.55q-1.907,0-2.03,1.318l-.009.149a1.017,1.017,0,0,0,.334.782A1.3,1.3,0,0,0,88.759,17.233Zm10.327-3.059a5.731,5.731,0,0,1,1-3.542,3.237,3.237,0,0,1,2.729-1.318,2.913,2.913,0,0,1,2.294,1.037V5.5h2.549V19h-2.294l-.123-1.011a2.989,2.989,0,0,1-2.443,1.187,3.228,3.228,0,0,1-2.694-1.323A5.916,5.916,0,0,1,99.086,14.175Zm2.54.189a3.754,3.754,0,0,0,.466,2.051,1.517,1.517,0,0,0,1.354.713,1.7,1.7,0,0,0,1.661-.995V12.375a1.675,1.675,0,0,0-1.644-.995Q101.626,11.38,101.626,14.364ZM114,19.176a4.668,4.668,0,0,1-3.406-1.283,4.561,4.561,0,0,1-1.314-3.419v-.246a5.745,5.745,0,0,1,.554-2.562,4.064,4.064,0,0,1,1.569-1.74,4.4,4.4,0,0,1,2.316-.611,3.947,3.947,0,0,1,3.072,1.23,5,5,0,0,1,1.121,3.489v1.037h-6.056a2.36,2.36,0,0,0,.743,1.494,2.245,2.245,0,0,0,1.569.563,2.742,2.742,0,0,0,2.294-1.063l1.248,1.4a3.813,3.813,0,0,1-1.547,1.261A5.075,5.075,0,0,1,114,19.176Zm-.29-7.813a1.587,1.587,0,0,0-1.226.512,2.651,2.651,0,0,0-.6,1.466h3.533v-.2a1.891,1.891,0,0,0-.457-1.311A1.638,1.638,0,0,0,113.711,11.362ZM59.681,25.152V27.49h1.626v1.863H59.681V34.1a1.133,1.133,0,0,0,.2.756,1.015,1.015,0,0,0,.773.229,4.051,4.051,0,0,0,.747-.062v1.925a5.229,5.229,0,0,1-1.538.229,2.425,2.425,0,0,1-2.725-2.7V29.354H55.752V27.49h1.389V25.152Zm8.385,4.72a6.9,6.9,0,0,0-.914-.07,1.86,1.86,0,0,0-1.89.976V37h-2.54V27.49h2.4l.07,1.134a2.354,2.354,0,0,1,2.118-1.31,2.662,2.662,0,0,1,.791.114ZM74.534,37a2.821,2.821,0,0,1-.255-.853,3.073,3.073,0,0,1-2.4,1.028,3.376,3.376,0,0,1-2.316-.809,2.6,2.6,0,0,1-.918-2.039,2.687,2.687,0,0,1,1.121-2.32A5.529,5.529,0,0,1,73,31.19h1.169v-.545a1.567,1.567,0,0,0-.338-1.055,1.331,1.331,0,0,0-1.068-.4,1.513,1.513,0,0,0-1.006.308,1.045,1.045,0,0,0-.365.844h-2.54a2.551,2.551,0,0,1,.51-1.529,3.37,3.37,0,0,1,1.441-1.1,5.253,5.253,0,0,1,2.092-.4,4.15,4.15,0,0,1,2.791.883,3.09,3.09,0,0,1,1.033,2.483V34.8a4.546,4.546,0,0,0,.378,2.048V37Zm-2.1-1.767a2.188,2.188,0,0,0,1.037-.25,1.645,1.645,0,0,0,.7-.672V32.676h-.949q-1.907,0-2.03,1.318l-.009.149a1.017,1.017,0,0,0,.334.782A1.3,1.3,0,0,0,72.434,35.233Zm14.81-2.9a5.758,5.758,0,0,1-.976,3.564,3.231,3.231,0,0,1-2.725,1.279,2.969,2.969,0,0,1-2.47-1.187L80.959,37H78.674V23.5h2.54v4.843a2.893,2.893,0,0,1,2.312-1.028,3.258,3.258,0,0,1,2.729,1.279,5.767,5.767,0,0,1,.989,3.6Zm-2.54-.185a3.783,3.783,0,0,0-.457-2.1,1.545,1.545,0,0,0-1.362-.664,1.676,1.676,0,0,0-1.67.993v3.753a1.7,1.7,0,0,0,1.688,1,1.568,1.568,0,0,0,1.617-1.213A6.257,6.257,0,0,0,84.7,32.148ZM94.318,37a2.821,2.821,0,0,1-.255-.853,3.073,3.073,0,0,1-2.4,1.028,3.376,3.376,0,0,1-2.316-.809,2.6,2.6,0,0,1-.918-2.039,2.687,2.687,0,0,1,1.121-2.32,5.529,5.529,0,0,1,3.239-.817h1.169v-.545a1.567,1.567,0,0,0-.338-1.055,1.331,1.331,0,0,0-1.068-.4,1.513,1.513,0,0,0-1.006.308,1.045,1.045,0,0,0-.365.844h-2.54a2.551,2.551,0,0,1,.51-1.529,3.37,3.37,0,0,1,1.441-1.1,5.253,5.253,0,0,1,2.092-.4,4.15,4.15,0,0,1,2.791.883,3.09,3.09,0,0,1,1.033,2.483V34.8a4.546,4.546,0,0,0,.378,2.048V37Zm-2.1-1.767a2.188,2.188,0,0,0,1.037-.25,1.645,1.645,0,0,0,.7-.672V32.676h-.949q-1.907,0-2.03,1.318l-.009.149a1.017,1.017,0,0,0,.334.782A1.3,1.3,0,0,0,92.218,35.233Zm8.93-7.743V37.519a3.4,3.4,0,0,1-.835,2.448,3.174,3.174,0,0,1-2.408.875,5.165,5.165,0,0,1-1.257-.149V38.679a4.768,4.768,0,0,0,.8.079q1.151,0,1.151-1.222V27.49ZM98.4,25.029a1.251,1.251,0,0,1,.382-.94,1.654,1.654,0,0,1,2.083,0,1.348,1.348,0,0,1-.009,1.89,1.629,1.629,0,0,1-2.065,0A1.247,1.247,0,0,1,98.4,25.029Zm4.342,7.128a5.64,5.64,0,0,1,.545-2.522,3.989,3.989,0,0,1,1.569-1.714,4.577,4.577,0,0,1,2.377-.606,4.33,4.33,0,0,1,3.142,1.178,4.727,4.727,0,0,1,1.358,3.2l.018.65a4.97,4.97,0,0,1-1.222,3.511,4.735,4.735,0,0,1-6.561,0,5.058,5.058,0,0,1-1.226-3.586Zm2.54.18a3.555,3.555,0,0,0,.51,2.073,1.831,1.831,0,0,0,2.9.009,3.89,3.89,0,0,0,.519-2.267,3.519,3.519,0,0,0-.519-2.06,1.686,1.686,0,0,0-1.459-.731,1.658,1.658,0,0,0-1.441.726A3.955,3.955,0,0,0,105.278,32.338Z" transform="translate(504 3542)" fill="#12263f"/>
    <path id="Trazado_268630" data-name="Trazado 268630" d="M48.817,14.737a4.528,4.528,0,0,1-1.525,3.252,5.355,5.355,0,0,1-3.625,1.187A4.816,4.816,0,0,1,39.8,17.519a6.793,6.793,0,0,1-1.411-4.548v-.782a7.671,7.671,0,0,1,.65-3.252,4.874,4.874,0,0,1,1.859-2.158,5.809,5.809,0,0,1,6.376.435,4.866,4.866,0,0,1,1.564,3.331H46.2a2.673,2.673,0,0,0-.69-1.8A2.555,2.555,0,0,0,43.7,8.189a2.24,2.24,0,0,0-1.973.945,5.3,5.3,0,0,0-.672,2.931v.967a5.667,5.667,0,0,0,.628,3.032,2.2,2.2,0,0,0,1.982.958,2.6,2.6,0,0,0,1.824-.558,2.521,2.521,0,0,0,.69-1.727ZM55.893,19a2.821,2.821,0,0,1-.255-.853,3.073,3.073,0,0,1-2.4,1.028,3.376,3.376,0,0,1-2.316-.809A2.6,2.6,0,0,1,50,16.328a2.687,2.687,0,0,1,1.121-2.32,5.529,5.529,0,0,1,3.239-.817h1.169v-.545a1.567,1.567,0,0,0-.338-1.055,1.331,1.331,0,0,0-1.068-.4,1.513,1.513,0,0,0-1.006.308,1.045,1.045,0,0,0-.365.844h-2.54a2.551,2.551,0,0,1,.51-1.529,3.37,3.37,0,0,1,1.441-1.1,5.253,5.253,0,0,1,2.092-.4,4.15,4.15,0,0,1,2.791.883,3.09,3.09,0,0,1,1.033,2.483V16.8a4.546,4.546,0,0,0,.378,2.048V19Zm-2.1-1.767a2.188,2.188,0,0,0,1.037-.25,1.645,1.645,0,0,0,.7-.672V14.676h-.949q-1.907,0-2.03,1.318l-.009.149a1.017,1.017,0,0,0,.334.782A1.3,1.3,0,0,0,53.792,17.233Zm11.584-5.361a6.9,6.9,0,0,0-.914-.07,1.86,1.86,0,0,0-1.89.976V19h-2.54V9.49h2.4l.07,1.134a2.354,2.354,0,0,1,2.118-1.31,2.662,2.662,0,0,1,.791.114Zm6.565,0a6.9,6.9,0,0,0-.914-.07,1.86,1.86,0,0,0-1.89.976V19H66.6V9.49H69l.07,1.134a2.354,2.354,0,0,1,2.118-1.31,2.662,2.662,0,0,1,.791.114Zm6.917,6.161a3.185,3.185,0,0,1-2.6,1.143,3,3,0,0,1-2.333-.879,3.752,3.752,0,0,1-.822-2.575V9.49h2.54v6.151q0,1.487,1.354,1.487a1.834,1.834,0,0,0,1.775-.9V9.49h2.549V19H78.929Zm9.527-1.661a.818.818,0,0,0-.461-.734,5.241,5.241,0,0,0-1.481-.479q-3.393-.712-3.393-2.883a2.613,2.613,0,0,1,1.05-2.114,4.237,4.237,0,0,1,2.747-.848,4.56,4.56,0,0,1,2.9.853,2.687,2.687,0,0,1,1.085,2.215h-2.54a1.229,1.229,0,0,0-.352-.9,1.488,1.488,0,0,0-1.1-.356,1.52,1.52,0,0,0-.993.29.916.916,0,0,0-.352.738.783.783,0,0,0,.4.681,4.114,4.114,0,0,0,1.349.448,11.019,11.019,0,0,1,1.6.426,2.628,2.628,0,0,1,2.013,2.558,2.481,2.481,0,0,1-1.116,2.1,4.815,4.815,0,0,1-2.883.8,5.029,5.029,0,0,1-2.123-.426,3.561,3.561,0,0,1-1.455-1.169,2.716,2.716,0,0,1-.527-1.6H85.16a1.326,1.326,0,0,0,.5,1.037,1.987,1.987,0,0,0,1.248.36,1.839,1.839,0,0,0,1.1-.277A.861.861,0,0,0,88.386,16.372Zm8.481,2.8a4.668,4.668,0,0,1-3.406-1.283,4.561,4.561,0,0,1-1.314-3.419v-.246a5.745,5.745,0,0,1,.554-2.562,4.064,4.064,0,0,1,1.569-1.74,4.4,4.4,0,0,1,2.316-.611,3.947,3.947,0,0,1,3.072,1.23,5,5,0,0,1,1.121,3.489v1.037H94.723a2.36,2.36,0,0,0,.743,1.494,2.245,2.245,0,0,0,1.569.563,2.742,2.742,0,0,0,2.294-1.063l1.248,1.4a3.813,3.813,0,0,1-1.547,1.261A5.075,5.075,0,0,1,96.867,19.176Zm-.29-7.813a1.587,1.587,0,0,0-1.226.512,2.651,2.651,0,0,0-.6,1.466h3.533v-.2a1.891,1.891,0,0,0-.457-1.311A1.638,1.638,0,0,0,96.577,11.362ZM104.9,19h-2.549V5.5H104.9Zm6.179-4.825a5.731,5.731,0,0,1,1-3.542,3.237,3.237,0,0,1,2.729-1.318,2.913,2.913,0,0,1,2.294,1.037V5.5h2.549V19h-2.294l-.123-1.011a2.989,2.989,0,0,1-2.443,1.187,3.228,3.228,0,0,1-2.694-1.323A5.916,5.916,0,0,1,111.079,14.175Zm2.54.189a3.754,3.754,0,0,0,.466,2.051,1.517,1.517,0,0,0,1.354.713,1.7,1.7,0,0,0,1.661-.995V12.375a1.675,1.675,0,0,0-1.644-.995Q113.619,11.38,113.619,14.364Zm12.375,4.812a4.668,4.668,0,0,1-3.406-1.283,4.561,4.561,0,0,1-1.314-3.419v-.246a5.745,5.745,0,0,1,.554-2.562,4.064,4.064,0,0,1,1.569-1.74,4.4,4.4,0,0,1,2.316-.611,3.947,3.947,0,0,1,3.072,1.23,5,5,0,0,1,1.121,3.489v1.037H123.85a2.36,2.36,0,0,0,.743,1.494,2.245,2.245,0,0,0,1.569.563,2.742,2.742,0,0,0,2.294-1.063l1.248,1.4a3.813,3.813,0,0,1-1.547,1.261A5.075,5.075,0,0,1,125.994,19.176Zm-.29-7.813a1.587,1.587,0,0,0-1.226.512,2.651,2.651,0,0,0-.6,1.466h3.533v-.2a1.891,1.891,0,0,0-.457-1.311A1.638,1.638,0,0,0,125.7,11.362ZM33.718,28.527a3.17,3.17,0,0,1,2.54-1.213q3.094,0,3.138,3.595V37h-2.54V30.979a1.767,1.767,0,0,0-.352-1.208,1.507,1.507,0,0,0-1.169-.391,1.729,1.729,0,0,0-1.617.861V37h-2.54V23.5h2.54Zm11.971,8.648a4.668,4.668,0,0,1-3.406-1.283,4.561,4.561,0,0,1-1.314-3.419v-.246a5.745,5.745,0,0,1,.554-2.562,4.064,4.064,0,0,1,1.569-1.74,4.4,4.4,0,0,1,2.316-.611,3.947,3.947,0,0,1,3.072,1.23A5,5,0,0,1,49.6,32.034v1.037H43.544a2.36,2.36,0,0,0,.743,1.494,2.245,2.245,0,0,0,1.569.563,2.742,2.742,0,0,0,2.294-1.063l1.248,1.4a3.813,3.813,0,0,1-1.547,1.261A5.075,5.075,0,0,1,45.688,37.176Zm-.29-7.813a1.587,1.587,0,0,0-1.226.512,2.651,2.651,0,0,0-.6,1.466H47.1v-.2a1.891,1.891,0,0,0-.457-1.311A1.638,1.638,0,0,0,45.4,29.362Zm10.986.51a6.9,6.9,0,0,0-.914-.07,1.86,1.86,0,0,0-1.89.976V37h-2.54V27.49h2.4l.07,1.134a2.354,2.354,0,0,1,2.118-1.31,2.662,2.662,0,0,1,.791.114Zm6.565,0a6.9,6.9,0,0,0-.914-.07,1.86,1.86,0,0,0-1.89.976V37h-2.54V27.49h2.4l.07,1.134a2.354,2.354,0,0,1,2.118-1.31,2.662,2.662,0,0,1,.791.114ZM69.419,37a2.821,2.821,0,0,1-.255-.853,3.073,3.073,0,0,1-2.4,1.028,3.376,3.376,0,0,1-2.316-.809,2.6,2.6,0,0,1-.918-2.039,2.687,2.687,0,0,1,1.121-2.32,5.529,5.529,0,0,1,3.239-.817h1.169v-.545a1.567,1.567,0,0,0-.338-1.055,1.331,1.331,0,0,0-1.068-.4,1.513,1.513,0,0,0-1.006.308,1.045,1.045,0,0,0-.365.844h-2.54a2.551,2.551,0,0,1,.51-1.529,3.37,3.37,0,0,1,1.441-1.1,5.253,5.253,0,0,1,2.092-.4,4.15,4.15,0,0,1,2.791.883,3.09,3.09,0,0,1,1.033,2.483V34.8a4.546,4.546,0,0,0,.378,2.048V37Zm-2.1-1.767a2.188,2.188,0,0,0,1.037-.25,1.645,1.645,0,0,0,.7-.672V32.676h-.949q-1.907,0-2.03,1.318l-.009.149a1.017,1.017,0,0,0,.334.782A1.3,1.3,0,0,0,67.318,35.233ZM75.94,27.49l.079,1.063a3.342,3.342,0,0,1,2.733-1.239,2.536,2.536,0,0,1,2.522,1.45,3.265,3.265,0,0,1,2.856-1.45,2.836,2.836,0,0,1,2.3.9,4.141,4.141,0,0,1,.756,2.711V37H84.642V30.936a1.811,1.811,0,0,0-.316-1.182,1.4,1.4,0,0,0-1.116-.374,1.585,1.585,0,0,0-1.582,1.09L81.636,37H79.1V30.944a1.789,1.789,0,0,0-.325-1.2,1.416,1.416,0,0,0-1.107-.369,1.646,1.646,0,0,0-1.564.9V37h-2.54V27.49ZM91.822,37H89.273V27.49h2.549Zm-2.7-11.971a1.251,1.251,0,0,1,.382-.94,1.648,1.648,0,0,1,2.079,0,1.342,1.342,0,0,1,0,1.89,1.629,1.629,0,0,1-2.065,0A1.247,1.247,0,0,1,89.124,25.029Zm9.167,12.146a4.668,4.668,0,0,1-3.406-1.283,4.561,4.561,0,0,1-1.314-3.419v-.246a5.745,5.745,0,0,1,.554-2.562,4.064,4.064,0,0,1,1.569-1.74,4.4,4.4,0,0,1,2.316-.611,3.947,3.947,0,0,1,3.072,1.23,5,5,0,0,1,1.121,3.489v1.037H96.146a2.36,2.36,0,0,0,.743,1.494,2.245,2.245,0,0,0,1.569.563,2.742,2.742,0,0,0,2.294-1.063l1.248,1.4a3.813,3.813,0,0,1-1.547,1.261A5.075,5.075,0,0,1,98.291,37.176ZM98,29.362a1.587,1.587,0,0,0-1.226.512,2.651,2.651,0,0,0-.6,1.466h3.533v-.2a1.891,1.891,0,0,0-.457-1.311A1.638,1.638,0,0,0,98,29.362Zm7.98-1.872.079,1.1a3.32,3.32,0,0,1,2.733-1.274,2.759,2.759,0,0,1,2.25.888,4.142,4.142,0,0,1,.756,2.654V37h-2.54V30.918a1.648,1.648,0,0,0-.352-1.173,1.574,1.574,0,0,0-1.169-.365,1.747,1.747,0,0,0-1.608.914V37h-2.54V27.49Zm10.784-2.338V27.49h1.626v1.863h-1.626V34.1a1.133,1.133,0,0,0,.2.756,1.015,1.015,0,0,0,.773.229,4.051,4.051,0,0,0,.747-.062v1.925a5.229,5.229,0,0,1-1.538.229,2.425,2.425,0,0,1-2.725-2.7V29.354h-1.389V27.49h1.389V25.152ZM125.317,37a2.821,2.821,0,0,1-.255-.853,3.073,3.073,0,0,1-2.4,1.028,3.376,3.376,0,0,1-2.316-.809,2.6,2.6,0,0,1-.918-2.039,2.687,2.687,0,0,1,1.121-2.32,5.529,5.529,0,0,1,3.239-.817h1.169v-.545a1.567,1.567,0,0,0-.338-1.055,1.331,1.331,0,0,0-1.068-.4,1.513,1.513,0,0,0-1.006.308,1.045,1.045,0,0,0-.365.844h-2.54a2.551,2.551,0,0,1,.51-1.529,3.37,3.37,0,0,1,1.441-1.1,5.253,5.253,0,0,1,2.092-.4,4.15,4.15,0,0,1,2.791.883,3.09,3.09,0,0,1,1.033,2.483V34.8a4.546,4.546,0,0,0,.378,2.048V37Zm-2.1-1.767a2.188,2.188,0,0,0,1.037-.25,1.645,1.645,0,0,0,.7-.672V32.676h-.949q-1.907,0-2.03,1.318l-.009.149a1.017,1.017,0,0,0,.334.782A1.3,1.3,0,0,0,123.217,35.233Zm11.391-.861a.818.818,0,0,0-.461-.734,5.241,5.241,0,0,0-1.481-.479q-3.393-.712-3.393-2.883a2.613,2.613,0,0,1,1.05-2.114,4.237,4.237,0,0,1,2.747-.848,4.56,4.56,0,0,1,2.9.853,2.687,2.687,0,0,1,1.085,2.215h-2.54a1.229,1.229,0,0,0-.352-.9,1.488,1.488,0,0,0-1.1-.356,1.52,1.52,0,0,0-.993.29.916.916,0,0,0-.352.738.783.783,0,0,0,.4.681,4.114,4.114,0,0,0,1.349.448,11.019,11.019,0,0,1,1.6.426,2.628,2.628,0,0,1,2.013,2.558,2.481,2.481,0,0,1-1.116,2.1,4.815,4.815,0,0,1-2.883.8,5.029,5.029,0,0,1-2.123-.426,3.561,3.561,0,0,1-1.455-1.169,2.716,2.716,0,0,1-.527-1.6h2.408a1.326,1.326,0,0,0,.5,1.037,1.987,1.987,0,0,0,1.248.36,1.839,1.839,0,0,0,1.1-.277A.861.861,0,0,0,134.607,34.372Z" transform="translate(714 3542)" fill="#12263f"/>
    <path id="Trazado_268631" data-name="Trazado 268631" d="M25.724,6.2l3.287,9.281L32.281,6.2h3.463V19H33.1V15.5l.264-6.038L29.908,19H28.1L24.652,9.473l.264,6.029V19H22.279V6.2Zm11.76,7.954a5.64,5.64,0,0,1,.545-2.522A3.989,3.989,0,0,1,39.6,9.921a4.577,4.577,0,0,1,2.377-.606,4.33,4.33,0,0,1,3.142,1.178,4.727,4.727,0,0,1,1.358,3.2l.018.65a4.97,4.97,0,0,1-1.222,3.511,4.735,4.735,0,0,1-6.561,0,5.058,5.058,0,0,1-1.226-3.586Zm2.54.18a3.555,3.555,0,0,0,.51,2.073,1.831,1.831,0,0,0,2.9.009,3.89,3.89,0,0,0,.519-2.267,3.519,3.519,0,0,0-.519-2.06,1.686,1.686,0,0,0-1.459-.731,1.658,1.658,0,0,0-1.441.726A3.955,3.955,0,0,0,40.024,14.338ZM50.4,9.49l.079,1.1a3.32,3.32,0,0,1,2.733-1.274,2.759,2.759,0,0,1,2.25.888,4.142,4.142,0,0,1,.756,2.654V19h-2.54V12.918a1.648,1.648,0,0,0-.352-1.173,1.574,1.574,0,0,0-1.169-.365,1.747,1.747,0,0,0-1.608.914V19H48V9.49ZM60.819,19H58.27V9.49h2.549Zm-2.7-11.971a1.251,1.251,0,0,1,.382-.94,1.648,1.648,0,0,1,2.079,0,1.244,1.244,0,0,1,.387.94,1.247,1.247,0,0,1-.391.949,1.629,1.629,0,0,1-2.065,0A1.247,1.247,0,0,1,58.121,7.029Zm7.831.123V9.49h1.626v1.863H65.952V16.1a1.133,1.133,0,0,0,.2.756,1.015,1.015,0,0,0,.773.229,4.051,4.051,0,0,0,.747-.062v1.925a5.229,5.229,0,0,1-1.538.229,2.425,2.425,0,0,1-2.725-2.7V11.354H62.023V9.49h1.389V7.152Zm2.382,7a5.64,5.64,0,0,1,.545-2.522,3.989,3.989,0,0,1,1.569-1.714,4.577,4.577,0,0,1,2.377-.606,4.33,4.33,0,0,1,3.142,1.178,4.727,4.727,0,0,1,1.358,3.2l.018.65a4.97,4.97,0,0,1-1.222,3.511,4.735,4.735,0,0,1-6.561,0,5.058,5.058,0,0,1-1.226-3.586Zm2.54.18a3.555,3.555,0,0,0,.51,2.073,1.831,1.831,0,0,0,2.9.009,3.89,3.89,0,0,0,.519-2.267,3.519,3.519,0,0,0-.519-2.06,1.686,1.686,0,0,0-1.459-.731,1.658,1.658,0,0,0-1.441.726A3.955,3.955,0,0,0,70.874,14.338ZM84.25,11.872a6.9,6.9,0,0,0-.914-.07,1.86,1.86,0,0,0-1.89.976V19h-2.54V9.49h2.4l.07,1.134a2.354,2.354,0,0,1,2.118-1.31,2.662,2.662,0,0,1,.791.114Zm9.255,3.533L95.263,9.49h2.725L94.165,20.477l-.211.5a2.9,2.9,0,0,1-2.812,1.863,4,4,0,0,1-1.125-.167V20.749l.387.009a2.09,2.09,0,0,0,1.077-.22,1.443,1.443,0,0,0,.558-.729l.3-.782L89.005,9.49h2.733Zm18.527-1.072a5.7,5.7,0,0,1-1,3.52,3.2,3.2,0,0,1-2.694,1.323,2.963,2.963,0,0,1-2.329-1v4.482h-2.54V9.49h2.355l.088.932a2.985,2.985,0,0,1,2.408-1.107,3.22,3.22,0,0,1,2.733,1.3,5.858,5.858,0,0,1,.976,3.586Zm-2.54-.185a3.743,3.743,0,0,0-.47-2.048,1.532,1.532,0,0,0-1.367-.721,1.663,1.663,0,0,0-1.644.914v3.894a1.692,1.692,0,0,0,1.661.94Q109.493,17.128,109.493,14.148ZM119.117,19a2.821,2.821,0,0,1-.255-.853,3.073,3.073,0,0,1-2.4,1.028,3.376,3.376,0,0,1-2.316-.809,2.6,2.6,0,0,1-.918-2.039,2.687,2.687,0,0,1,1.121-2.32,5.529,5.529,0,0,1,3.239-.817h1.169v-.545a1.567,1.567,0,0,0-.338-1.055,1.331,1.331,0,0,0-1.068-.4,1.513,1.513,0,0,0-1.006.308,1.045,1.045,0,0,0-.365.844h-2.54a2.551,2.551,0,0,1,.51-1.529,3.37,3.37,0,0,1,1.441-1.1,5.253,5.253,0,0,1,2.092-.4,4.15,4.15,0,0,1,2.791.883,3.09,3.09,0,0,1,1.033,2.483V16.8a4.546,4.546,0,0,0,.378,2.048V19Zm-2.1-1.767a2.188,2.188,0,0,0,1.037-.25,1.645,1.645,0,0,0,.7-.672V14.676h-.949q-1.907,0-2.03,1.318l-.009.149a1.017,1.017,0,0,0,.334.782A1.3,1.3,0,0,0,117.016,17.233Zm8.578-7.743.079,1.1a3.32,3.32,0,0,1,2.733-1.274,2.759,2.759,0,0,1,2.25.888,4.142,4.142,0,0,1,.756,2.654V19h-2.54V12.918a1.648,1.648,0,0,0-.352-1.173,1.574,1.574,0,0,0-1.169-.365,1.747,1.747,0,0,0-1.608.914V19H123.2V9.49Zm12.12,9.686a4.668,4.668,0,0,1-3.406-1.283,4.561,4.561,0,0,1-1.314-3.419v-.246a5.745,5.745,0,0,1,.554-2.562,4.064,4.064,0,0,1,1.569-1.74,4.4,4.4,0,0,1,2.316-.611,3.947,3.947,0,0,1,3.072,1.23,5,5,0,0,1,1.121,3.489v1.037H135.57a2.36,2.36,0,0,0,.743,1.494,2.245,2.245,0,0,0,1.569.563,2.742,2.742,0,0,0,2.294-1.063l1.248,1.4a3.813,3.813,0,0,1-1.547,1.261A5.075,5.075,0,0,1,137.714,19.176Zm-.29-7.813a1.587,1.587,0,0,0-1.226.512,2.651,2.651,0,0,0-.6,1.466h3.533v-.2a1.891,1.891,0,0,0-.457-1.311A1.638,1.638,0,0,0,137.424,11.362ZM145.748,19H143.2V5.5h2.549ZM43.939,32.175a5.731,5.731,0,0,1,1-3.542,3.237,3.237,0,0,1,2.729-1.318,2.913,2.913,0,0,1,2.294,1.037V23.5h2.549V37H50.215l-.123-1.011a2.989,2.989,0,0,1-2.443,1.187,3.228,3.228,0,0,1-2.694-1.323A5.916,5.916,0,0,1,43.939,32.175Zm2.54.189a3.754,3.754,0,0,0,.466,2.051,1.517,1.517,0,0,0,1.354.713,1.7,1.7,0,0,0,1.661-.995V30.375a1.675,1.675,0,0,0-1.644-.995Q46.479,29.38,46.479,32.364Zm12.375,4.812a4.668,4.668,0,0,1-3.406-1.283,4.561,4.561,0,0,1-1.314-3.419v-.246a5.745,5.745,0,0,1,.554-2.562,4.064,4.064,0,0,1,1.569-1.74,4.4,4.4,0,0,1,2.316-.611,3.947,3.947,0,0,1,3.072,1.23,5,5,0,0,1,1.121,3.489v1.037H56.71a2.36,2.36,0,0,0,.743,1.494,2.245,2.245,0,0,0,1.569.563,2.742,2.742,0,0,0,2.294-1.063l1.248,1.4a3.813,3.813,0,0,1-1.547,1.261A5.075,5.075,0,0,1,58.854,37.176Zm-.29-7.813a1.587,1.587,0,0,0-1.226.512,2.651,2.651,0,0,0-.6,1.466H60.27v-.2a1.891,1.891,0,0,0-.457-1.311A1.638,1.638,0,0,0,58.564,29.362Zm14.08,5.766a1.666,1.666,0,0,0,1.143-.387,1.355,1.355,0,0,0,.457-1.028h2.382a3.258,3.258,0,0,1-.527,1.771,3.48,3.48,0,0,1-1.419,1.248,4.442,4.442,0,0,1-1.991.444,4.129,4.129,0,0,1-3.217-1.3A5.13,5.13,0,0,1,68.294,32.3v-.167a5.071,5.071,0,0,1,1.169-3.507,4.08,4.08,0,0,1,3.208-1.31,4,4,0,0,1,2.861,1.015,3.594,3.594,0,0,1,1.094,2.7H74.244a1.745,1.745,0,0,0-.457-1.206,1.7,1.7,0,0,0-2.5.183,3.749,3.749,0,0,0-.453,2.1v.264a3.8,3.8,0,0,0,.448,2.113A1.549,1.549,0,0,0,72.645,35.128Zm5.036-2.971a5.64,5.64,0,0,1,.545-2.522,3.989,3.989,0,0,1,1.569-1.714,4.577,4.577,0,0,1,2.377-.606,4.33,4.33,0,0,1,3.142,1.178,4.727,4.727,0,0,1,1.358,3.2l.018.65a4.97,4.97,0,0,1-1.222,3.511,4.735,4.735,0,0,1-6.561,0,5.058,5.058,0,0,1-1.226-3.586Zm2.54.18a3.555,3.555,0,0,0,.51,2.073,1.831,1.831,0,0,0,2.9.009,3.89,3.89,0,0,0,.519-2.267,3.519,3.519,0,0,0-.519-2.06,1.686,1.686,0,0,0-1.459-.731,1.658,1.658,0,0,0-1.441.726A3.955,3.955,0,0,0,80.221,32.338ZM90.592,27.49l.079,1.1A3.32,3.32,0,0,1,93.4,27.314a2.759,2.759,0,0,1,2.25.888,4.142,4.142,0,0,1,.756,2.654V37H93.87V30.918a1.648,1.648,0,0,0-.352-1.173,1.574,1.574,0,0,0-1.169-.365,1.747,1.747,0,0,0-1.608.914V37H88.2V27.49Zm10.784-2.338V27.49H103v1.863h-1.626V34.1a1.133,1.133,0,0,0,.2.756,1.015,1.015,0,0,0,.773.229,4.051,4.051,0,0,0,.747-.062v1.925a5.229,5.229,0,0,1-1.538.229,2.425,2.425,0,0,1-2.725-2.7V29.354H97.447V27.49h1.389V25.152Zm8.385,4.72a6.9,6.9,0,0,0-.914-.07,1.86,1.86,0,0,0-1.89.976V37h-2.54V27.49h2.4l.07,1.134A2.354,2.354,0,0,1,109,27.314a2.662,2.662,0,0,1,.791.114Zm.51,2.285a5.64,5.64,0,0,1,.545-2.522,3.989,3.989,0,0,1,1.569-1.714,4.577,4.577,0,0,1,2.377-.606,4.33,4.33,0,0,1,3.142,1.178,4.727,4.727,0,0,1,1.358,3.2l.018.65a4.97,4.97,0,0,1-1.222,3.511,4.735,4.735,0,0,1-6.561,0,5.058,5.058,0,0,1-1.226-3.586Zm2.54.18a3.555,3.555,0,0,0,.51,2.073,1.831,1.831,0,0,0,2.9.009,3.89,3.89,0,0,0,.519-2.267,3.519,3.519,0,0,0-.519-2.06,1.686,1.686,0,0,0-1.459-.731,1.658,1.658,0,0,0-1.441.726A3.955,3.955,0,0,0,112.811,32.338ZM123.524,37h-2.549V23.5h2.549Z" transform="translate(925 3542)" fill="#12263f"/>
    <path id="Trazado_268632" data-name="Trazado 268632" d="M56.174,14.737a4.528,4.528,0,0,1-1.525,3.252,5.355,5.355,0,0,1-3.625,1.187,4.816,4.816,0,0,1-3.872-1.657,6.793,6.793,0,0,1-1.411-4.548v-.782a7.671,7.671,0,0,1,.65-3.252A4.874,4.874,0,0,1,48.25,6.779a5.809,5.809,0,0,1,6.376.435,4.866,4.866,0,0,1,1.564,3.331H53.555a2.673,2.673,0,0,0-.69-1.8,2.555,2.555,0,0,0-1.806-.558,2.24,2.24,0,0,0-1.973.945,5.3,5.3,0,0,0-.672,2.931v.967a5.667,5.667,0,0,0,.628,3.032,2.2,2.2,0,0,0,1.982.958,2.6,2.6,0,0,0,1.824-.558,2.521,2.521,0,0,0,.69-1.727ZM63.249,19a2.821,2.821,0,0,1-.255-.853,3.073,3.073,0,0,1-2.4,1.028,3.376,3.376,0,0,1-2.316-.809,2.6,2.6,0,0,1-.918-2.039,2.687,2.687,0,0,1,1.121-2.32,5.529,5.529,0,0,1,3.239-.817h1.169v-.545a1.567,1.567,0,0,0-.338-1.055,1.331,1.331,0,0,0-1.068-.4,1.513,1.513,0,0,0-1.006.308,1.045,1.045,0,0,0-.365.844h-2.54a2.551,2.551,0,0,1,.51-1.529,3.37,3.37,0,0,1,1.441-1.1,5.253,5.253,0,0,1,2.092-.4A4.15,4.15,0,0,1,64.4,10.2a3.09,3.09,0,0,1,1.033,2.483V16.8a4.546,4.546,0,0,0,.378,2.048V19Zm-2.1-1.767a2.188,2.188,0,0,0,1.037-.25,1.645,1.645,0,0,0,.7-.672V14.676h-.949q-1.907,0-2.03,1.318l-.009.149a1.017,1.017,0,0,0,.334.782A1.3,1.3,0,0,0,61.148,17.233Zm11.584-5.361a6.9,6.9,0,0,0-.914-.07,1.86,1.86,0,0,0-1.89.976V19h-2.54V9.49h2.4l.07,1.134a2.354,2.354,0,0,1,2.118-1.31,2.662,2.662,0,0,1,.791.114Zm6.565,0a6.9,6.9,0,0,0-.914-.07,1.86,1.86,0,0,0-1.89.976V19h-2.54V9.49h2.4l.07,1.134a2.354,2.354,0,0,1,2.118-1.31,2.662,2.662,0,0,1,.791.114Zm.51,2.285a5.64,5.64,0,0,1,.545-2.522,3.989,3.989,0,0,1,1.569-1.714A4.577,4.577,0,0,1,84.3,9.314a4.33,4.33,0,0,1,3.142,1.178,4.727,4.727,0,0,1,1.358,3.2l.018.65a4.97,4.97,0,0,1-1.222,3.511,4.735,4.735,0,0,1-6.561,0,5.058,5.058,0,0,1-1.226-3.586Zm2.54.18a3.555,3.555,0,0,0,.51,2.073,1.831,1.831,0,0,0,2.9.009,3.89,3.89,0,0,0,.519-2.267,3.519,3.519,0,0,0-.519-2.06,1.686,1.686,0,0,0-1.459-.731,1.658,1.658,0,0,0-1.441.726A3.955,3.955,0,0,0,82.348,14.338Zm13.184,2.035a.818.818,0,0,0-.461-.734,5.241,5.241,0,0,0-1.481-.479Q90.2,14.447,90.2,12.276a2.613,2.613,0,0,1,1.05-2.114,4.237,4.237,0,0,1,2.747-.848,4.56,4.56,0,0,1,2.9.853,2.687,2.687,0,0,1,1.085,2.215h-2.54a1.229,1.229,0,0,0-.352-.9,1.488,1.488,0,0,0-1.1-.356,1.52,1.52,0,0,0-.993.29.916.916,0,0,0-.352.738.783.783,0,0,0,.4.681,4.114,4.114,0,0,0,1.349.448,11.019,11.019,0,0,1,1.6.426A2.628,2.628,0,0,1,98,16.267a2.481,2.481,0,0,1-1.116,2.1,4.815,4.815,0,0,1-2.883.8,5.029,5.029,0,0,1-2.123-.426,3.561,3.561,0,0,1-1.455-1.169,2.716,2.716,0,0,1-.527-1.6h2.408a1.326,1.326,0,0,0,.5,1.037,1.987,1.987,0,0,0,1.248.36,1.839,1.839,0,0,0,1.1-.277A.861.861,0,0,0,95.531,16.372Zm8.191-2.2a5.731,5.731,0,0,1,1-3.542,3.237,3.237,0,0,1,2.729-1.318,2.913,2.913,0,0,1,2.294,1.037V5.5h2.549V19H110l-.123-1.011a2.989,2.989,0,0,1-2.443,1.187,3.228,3.228,0,0,1-2.694-1.323A5.916,5.916,0,0,1,103.723,14.175Zm2.54.189a3.754,3.754,0,0,0,.466,2.051,1.517,1.517,0,0,0,1.354.713,1.7,1.7,0,0,0,1.661-.995V12.375a1.675,1.675,0,0,0-1.644-.995Q106.263,11.38,106.263,14.364Zm12.375,4.812a4.668,4.668,0,0,1-3.406-1.283,4.561,4.561,0,0,1-1.314-3.419v-.246a5.745,5.745,0,0,1,.554-2.562,4.064,4.064,0,0,1,1.569-1.74,4.4,4.4,0,0,1,2.316-.611,3.947,3.947,0,0,1,3.072,1.23,5,5,0,0,1,1.121,3.489v1.037h-6.056a2.36,2.36,0,0,0,.743,1.494,2.245,2.245,0,0,0,1.569.563,2.742,2.742,0,0,0,2.294-1.063l1.248,1.4a3.813,3.813,0,0,1-1.547,1.261A5.075,5.075,0,0,1,118.638,19.176Zm-.29-7.813a1.587,1.587,0,0,0-1.226.512,2.651,2.651,0,0,0-.6,1.466h3.533v-.2a1.891,1.891,0,0,0-.457-1.311A1.638,1.638,0,0,0,118.348,11.362ZM61.821,37a2.821,2.821,0,0,1-.255-.853,3.073,3.073,0,0,1-2.4,1.028,3.376,3.376,0,0,1-2.316-.809,2.6,2.6,0,0,1-.918-2.039,2.687,2.687,0,0,1,1.121-2.32,5.529,5.529,0,0,1,3.239-.817H61.46v-.545a1.567,1.567,0,0,0-.338-1.055,1.331,1.331,0,0,0-1.068-.4,1.513,1.513,0,0,0-1.006.308,1.045,1.045,0,0,0-.365.844h-2.54a2.551,2.551,0,0,1,.51-1.529,3.37,3.37,0,0,1,1.441-1.1,5.253,5.253,0,0,1,2.092-.4,4.15,4.15,0,0,1,2.791.883,3.09,3.09,0,0,1,1.033,2.483V34.8a4.546,4.546,0,0,0,.378,2.048V37Zm-2.1-1.767a2.188,2.188,0,0,0,1.037-.25,1.645,1.645,0,0,0,.7-.672V32.676h-.949q-1.907,0-2.03,1.318l-.009.149a1.017,1.017,0,0,0,.334.782A1.3,1.3,0,0,0,59.72,35.233ZM69.388,33.9l1.767-6.407h2.654L70.6,37H68.175l-3.208-9.51h2.654ZM80.3,37a2.821,2.821,0,0,1-.255-.853,3.073,3.073,0,0,1-2.4,1.028,3.376,3.376,0,0,1-2.316-.809,2.6,2.6,0,0,1-.918-2.039,2.687,2.687,0,0,1,1.121-2.32,5.529,5.529,0,0,1,3.239-.817h1.169v-.545a1.567,1.567,0,0,0-.338-1.055,1.331,1.331,0,0,0-1.068-.4,1.513,1.513,0,0,0-1.006.308,1.045,1.045,0,0,0-.365.844h-2.54a2.551,2.551,0,0,1,.51-1.529,3.37,3.37,0,0,1,1.441-1.1,5.253,5.253,0,0,1,2.092-.4,4.15,4.15,0,0,1,2.791.883,3.09,3.09,0,0,1,1.033,2.483V34.8a4.546,4.546,0,0,0,.378,2.048V37Zm-2.1-1.767a2.188,2.188,0,0,0,1.037-.25,1.645,1.645,0,0,0,.7-.672V32.676h-.949q-1.907,0-2.03,1.318l-.009.149a1.017,1.017,0,0,0,.334.782A1.3,1.3,0,0,0,78.2,35.233Zm8.578-7.743.079,1.1a3.32,3.32,0,0,1,2.733-1.274,2.759,2.759,0,0,1,2.25.888,4.142,4.142,0,0,1,.756,2.654V37H90.06V30.918a1.648,1.648,0,0,0-.352-1.173,1.574,1.574,0,0,0-1.169-.365,1.747,1.747,0,0,0-1.608.914V37h-2.54V27.49Zm11.7,7.638a1.666,1.666,0,0,0,1.143-.387,1.355,1.355,0,0,0,.457-1.028h2.382a3.258,3.258,0,0,1-.527,1.771,3.48,3.48,0,0,1-1.419,1.248,4.442,4.442,0,0,1-1.991.444,4.129,4.129,0,0,1-3.217-1.3A5.13,5.13,0,0,1,94.129,32.3v-.167A5.071,5.071,0,0,1,95.3,28.624a4.08,4.08,0,0,1,3.208-1.31,4,4,0,0,1,2.861,1.015,3.594,3.594,0,0,1,1.094,2.7H100.08a1.745,1.745,0,0,0-.457-1.206,1.7,1.7,0,0,0-2.5.183,3.749,3.749,0,0,0-.453,2.1v.264a3.8,3.8,0,0,0,.448,2.113A1.549,1.549,0,0,0,98.48,35.128Zm9.809,2.048a4.668,4.668,0,0,1-3.406-1.283,4.561,4.561,0,0,1-1.314-3.419v-.246a5.745,5.745,0,0,1,.554-2.562,4.064,4.064,0,0,1,1.569-1.74,4.4,4.4,0,0,1,2.316-.611,3.947,3.947,0,0,1,3.072,1.23,5,5,0,0,1,1.121,3.489v1.037h-6.056a2.36,2.36,0,0,0,.743,1.494,2.245,2.245,0,0,0,1.569.563,2.742,2.742,0,0,0,2.294-1.063l1.248,1.4a3.813,3.813,0,0,1-1.547,1.261A5.075,5.075,0,0,1,108.289,37.176ZM108,29.362a1.587,1.587,0,0,0-1.226.512,2.651,2.651,0,0,0-.6,1.466H109.7v-.2a1.891,1.891,0,0,0-.457-1.311A1.638,1.638,0,0,0,108,29.362Z" transform="translate(1135 3542)" fill="#12263f"/>
  </g>
</svg>
