<svg xmlns="http://www.w3.org/2000/svg" xmlns:xlink="http://www.w3.org/1999/xlink" width="190" height="100" viewBox="0 0 190 100">
  <defs>
    <clipPath id="clip-path">
      <rect id="Rectángulo_294507" data-name="Rectángulo 294507" width="100" height="100" fill="none"/>
    </clipPath>
  </defs>
  <g id="Grupo_175323" data-name="Grupo 175323" transform="translate(-180 -400)">
    <g id="Grupo_109728" data-name="Grupo 109728" transform="translate(0 -1082)">
      <path id="Trazado_113723" data-name="Trazado 113723" d="M-72.06,10.548c-4.477.05-6.13,3.173-2.337,4.452,6.3,2.121,12.513,4.55,18.547,7.263A177.319,177.319,0,0,1-32.831,34.648c5.278,3.394,15.486,2.36,18.155-1.823,2.056-3.221,2.858-6.957-.234-10.426-1.934-2.169-5.253-3.9-9.238-5C-45.161,11.608-61.544,10.43-72.06,10.548Z" transform="translate(382.855 1471.46)" fill="#a2e6b0" opacity="0.2"/>
      <path id="blob" d="M14.578,76.777C1.92,55.917,14.714,27.111,42.343,16.268,69.976,5.341,112.305,12.46,146.059,27.277s58.933,37.249,50.495,54.548c-8.44,17.383-50.5,29.551-90.783,29.137C65.62,110.548,27.239,97.636,14.578,76.777Z" transform="translate(170.321 1471.027)" fill="#a2e6b0" opacity="0.2"/>
    </g>
    <g id="Grupo_175322" data-name="Grupo 175322" transform="translate(225 400)">
      <g id="Grupo_175322-2" data-name="Grupo 175322" clip-path="url(#clip-path)">
        <path id="Trazado_265852" data-name="Trazado 265852" d="M11.226,72A3.226,3.226,0,1,1,8,75.226,3.226,3.226,0,0,1,11.226,72" transform="translate(-6.387 -57.484)" fill="#eee8e3"/>
        <path id="Trazado_265853" data-name="Trazado 265853" d="M267.226,40A3.226,3.226,0,1,1,264,43.226,3.226,3.226,0,0,1,267.226,40" transform="translate(-210.774 -31.935)" fill="#eee8e3"/>
        <path id="Trazado_265854" data-name="Trazado 265854" d="M123.226,8A3.226,3.226,0,1,1,120,11.226,3.226,3.226,0,0,1,123.226,8" transform="translate(-95.806 -6.387)" fill="#eee8e3"/>
        <path id="Trazado_265855" data-name="Trazado 265855" d="M59.613,251.29H19.29a.921.921,0,0,1-.21-.016A11.256,11.256,0,0,1,8,240v38.71A11.282,11.282,0,0,0,19.29,290H62.839V251.29Z" transform="translate(-6.387 -191.613)" fill="#e6e9ed"/>
        <path id="Trazado_265856" data-name="Trazado 265856" d="M136,424.129V408h22.871A4.577,4.577,0,0,0,160,409.806a4.827,4.827,0,0,0,3.419,1.419h1.613v12.9Z" transform="translate(-108.581 -325.742)" fill="#eee8e3"/>
        <rect id="Rectángulo_294496" data-name="Rectángulo 294496" width="9.677" height="16.129" transform="translate(33.871 66.129)" fill="#cfbdb0"/>
        <path id="Trazado_265857" data-name="Trazado 265857" d="M110.452,216A6.452,6.452,0,1,1,104,222.452,6.452,6.452,0,0,1,110.452,216" transform="translate(-83.032 -172.452)" fill="#eee8e3"/>
        <path id="Trazado_265858" data-name="Trazado 265858" d="M14.452,200.129l7.242,1.21c.113.339.258.677.4,1l-3.016,4.226A11.283,11.283,0,0,1,19.29,184h.048l-1.5,1.5,4.258,5.968c-.145.323-.29.661-.4,1l-7.242,1.21Z" transform="translate(-6.387 -146.903)" fill="#bfe0fa"/>
        <path id="Trazado_265859" data-name="Trazado 265859" d="M208.177,201.048v5.532H197.112l-3.032-4.242c.145-.323.29-.661.4-1l7.242-1.21v-6.452l-7.242-1.21c-.113-.339-.258-.677-.4-1l4.258-5.968-1.5-1.5h11.339Z" transform="translate(-154.951 -146.903)" fill="#bfe0fa"/>
        <path id="Trazado_265860" data-name="Trazado 265860" d="M74.1,181.032H44.839a.92.92,0,0,1-.21-.016l3.016-4.226c-.145-.323-.29-.661-.4-1L40,174.581v-6.452l7.242-1.21c.113-.339.258-.677.4-1l-4.258-5.968,1.5-1.5,3.065-3.065,5.968,4.258c.323-.145.661-.29,1-.4L56.129,152h6.452l1.21,7.242c.339.113.677.258,1,.4l5.968-4.258,3.065,3.065,1.5,1.5-4.258,5.968c.145.323.29.661.4,1l7.242,1.21v6.452l-7.242,1.21c-.113.339-.258.677-.4,1Zm-14.742-3.226a6.452,6.452,0,1,0-6.452-6.452,6.45,6.45,0,0,0,6.452,6.452" transform="translate(-31.935 -121.355)" fill="#cfbdb0"/>
        <path id="Trazado_265861" data-name="Trazado 265861" d="M360.194,328v32.258H336v-12.9h8.581a13.613,13.613,0,0,0,11.548-6.4,28.366,28.366,0,0,0,3.032-6.177A21.47,21.47,0,0,0,360.194,328Z" transform="translate(-268.258 -261.871)" fill="#48a5f0"/>
        <path id="Trazado_265862" data-name="Trazado 265862" d="M328.258,275.8v1.613a21.471,21.471,0,0,1-1.032,6.774,28.365,28.365,0,0,1-3.032,6.177,13.612,13.612,0,0,1-11.548,6.4H296v-9.677h8.065V281.2a15.141,15.141,0,0,1,.113-1.919,16.981,16.981,0,0,1,1.177-4.565,16.765,16.765,0,0,1,2.4-4.081,17.773,17.773,0,0,1,1.274-1.419,16.382,16.382,0,0,1,3.355-2.6l2.968,5.952,9.5-7.935A20.644,20.644,0,0,1,328.258,275.8Z" transform="translate(-236.323 -211.285)" fill="#48a5f0"/>
        <path id="Trazado_265863" data-name="Trazado 265863" d="M264,268.56l18.21,5.21a16.766,16.766,0,0,0-2.4,4.081,16.982,16.982,0,0,0-1.177,4.565l-11.4-3.258v-5.065H264Z" transform="translate(-210.774 -214.415)" fill="#48a5f0"/>
        <path id="Trazado_265864" data-name="Trazado 265864" d="M389.748,257.742l-9.5,7.935-2.968-5.952a13.494,13.494,0,0,1,1.355-.71,15.052,15.052,0,0,1,2.613-1L388.312,256A11.8,11.8,0,0,1,389.748,257.742Z" transform="translate(-301.215 -204.387)" fill="#48a5f0"/>
        <path id="Trazado_265865" data-name="Trazado 265865" d="M257.677,376v9.677h-4.839a4.827,4.827,0,0,1-3.419-1.419,4.577,4.577,0,0,1-1.129-1.806,4.471,4.471,0,0,1-.29-1.613A4.832,4.832,0,0,1,252.839,376h4.839Z" transform="translate(-198 -300.194)" fill="#f0d0b4"/>
        <path id="Trazado_265866" data-name="Trazado 265866" d="M436.9,128v2.177a19.37,19.37,0,0,1-9.1,16.419l-2.968,1.839L424,142.516l2.081-2.081a3.881,3.881,0,0,0,1.145-2.758A3.249,3.249,0,0,0,424,134.452V128Z" transform="translate(-338.516 -102.194)" fill="#656d78"/>
        <path id="Trazado_265867" data-name="Trazado 265867" d="M376.29,62.687v1.435h-12.9V59.284a1.618,1.618,0,0,0-1.613-1.613H348.08a14.517,14.517,0,0,1,28.21,5.016" transform="translate(-277.903 -38.317)" fill="#bbc2cf"/>
        <path id="Trazado_265868" data-name="Trazado 265868" d="M334.581,97.613v4.839H313.613A1.618,1.618,0,0,1,312,100.839V97.613A1.618,1.618,0,0,1,313.613,96h19.355a1.618,1.618,0,0,1,1.613,1.613" transform="translate(-249.097 -76.645)" fill="#bbc2cf"/>
        <path id="Trazado_265869" data-name="Trazado 265869" d="M348.194,148.435l.774,5.371-7.065,2.016a15.052,15.052,0,0,0-2.613,1v-9.468h-1.613a6.443,6.443,0,0,1-6.452-6.452H328c0-8.065,3.226-12.9,3.226-12.9h16.129v6.452a3.249,3.249,0,0,1,3.226,3.226,3.881,3.881,0,0,1-1.145,2.758l-2.081,2.081Z" transform="translate(-261.871 -102.194)" fill="#f0d0b4"/>
        <path id="Trazado_265870" data-name="Trazado 265870" d="M353.613,152A1.613,1.613,0,1,1,352,153.613,1.613,1.613,0,0,1,353.613,152" transform="translate(-281.032 -121.355)"/>
        <path id="Trazado_265871" data-name="Trazado 265871" d="M87.866,40.53a16.219,16.219,0,0,0-18.768,9.2H64.516a3.229,3.229,0,0,0-3.226,3.226v3.226A3.229,3.229,0,0,0,64.516,59.4h2.21a28.752,28.752,0,0,0-2.21,11.29v1.613H67.9a8.078,8.078,0,0,0,7.9,6.452v6.887a18.507,18.507,0,0,0-4.244,3.14c-.231.231-.437.481-.655.721L54.839,84.914V67.467H42.555L39,63.909l-5.811,4.145-1.174-7.039H22.829l-1.176,7.04-5.811-4.145-3.59,3.59A12.908,12.908,0,0,0,0,80.371v38.71a12.918,12.918,0,0,0,12.9,12.9H58.065v-12.9h8.065v12.9H93.548V96.5c0-4.181-1.54-9.9-4.921-13.592l-.553-3.866,2.071-1.294A20.856,20.856,0,0,0,100,59.966v-3.6A16.081,16.081,0,0,0,87.866,40.53Zm-.756,3.135a13.017,13.017,0,0,1,9.656,12.511H87.1V52.951a3.229,3.229,0,0,0-3.226-3.226H72.694a13.04,13.04,0,0,1,14.416-6.06M64.516,52.951H83.871v3.226H64.516ZM79.032,78.758h3.226V75.532H75.806a4.845,4.845,0,0,1-4.839-4.839V69.08H67.789a24.344,24.344,0,0,1,2.5-9.677H83.871v6.452h1.613A1.615,1.615,0,0,1,87.1,67.467a2.259,2.259,0,0,1-.668,1.613l-2.655,2.655,1.527,10.7-5.718,1.634c-.189.053-.365.137-.552.2Zm1.437,8.41L85.6,85.7,79.566,90.73l-1.348-2.7a15.2,15.2,0,0,1,2.252-.866m-11.626,5.1a18.291,18.291,0,0,0-2.279,5.673l-8.5-2.429V90.048H54.839V88.269ZM51.613,112.629a3.229,3.229,0,0,1,3.226-3.226h3.226v6.452H54.839a3.229,3.229,0,0,1-3.226-3.226m6.452-6.452V98.869l8.1,2.315c-.01.239-.035.477-.035.719v4.274ZM45.289,70.693h6.324V90.048H42.985l-1.639-2.3,7.04-1.176V77.393l-7.04-1.176Zm-29.1-2.571,5.611,4,.844-.381a8.91,8.91,0,0,1,.845-.344l.921-.306,1.148-6.853h3.721l1.145,6.853.921.306a8.74,8.74,0,0,1,.845.344l.844.381,5.611-4,2.634,2.634-4,5.61.379.844a8.994,8.994,0,0,1,.344.845l.3.924,6.855,1.145v3.721L38.3,84.99l-.3.924a8.993,8.993,0,0,1-.344.845l-.379.844,1.747,2.445H15.815L17.56,87.6l-.379-.844a8.993,8.993,0,0,1-.344-.845l-.3-.924L9.677,83.843V80.122l6.855-1.145.3-.924a8.994,8.994,0,0,1,.344-.845l.379-.844-4-5.61ZM9.9,71.185l3.592,5.031L6.452,77.392v9.182l7.04,1.176-1.6,2.244A9.667,9.667,0,0,1,9.9,71.185m-6.676,47.9v-30.2a12.864,12.864,0,0,0,9.677,4.4H54.839v12.9a6.458,6.458,0,0,0-6.452,6.452H45.161V96.5h-12.9v16.129H25.806v16.129H12.9A9.687,9.687,0,0,1,3.226,119.08Zm38.71-6.452H35.484v-12.9h6.452Zm12.9,16.129H29.032v-12.9H49.284a6.431,6.431,0,0,0,5.555,3.226Zm35.484,0H69.355V119.08h6.973a15.132,15.132,0,0,0,12.908-7.155q.588-.941,1.087-1.842Zm0-30.645c0,4.31-1.071,7.7-3.821,12.1a11.931,11.931,0,0,1-10.174,5.639H61.29V109.4H76.423a3.206,3.206,0,0,0,2.885-1.782L83.7,98.835l-2.885-1.444-4.394,8.785H69.355V101.9a15.225,15.225,0,0,1,4.489-10.837,15,15,0,0,1,1.594-1.374L78.5,95.817l9.635-8.031A19.326,19.326,0,0,1,90.323,96.5Zm-1.887-23.1-.86.537-.382-2.671,1.516-1.515a5.47,5.47,0,0,0,1.613-3.9A4.848,4.848,0,0,0,87.1,62.9V59.4h9.677v.563A17.645,17.645,0,0,1,88.435,75.011Z" transform="translate(0 -31.983)"/>
        <rect id="Rectángulo_294497" data-name="Rectángulo 294497" width="3.226" height="3.226" transform="translate(45.161 90.323)"/>
        <rect id="Rectángulo_294498" data-name="Rectángulo 294498" width="3.226" height="3.226" transform="translate(38.71 90.323)"/>
        <rect id="Rectángulo_294499" data-name="Rectángulo 294499" width="3.226" height="3.226" transform="translate(32.258 90.323)"/>
        <rect id="Rectángulo_294500" data-name="Rectángulo 294500" width="16.129" height="3.226" transform="translate(12.903 74.194)"/>
        <rect id="Rectángulo_294501" data-name="Rectángulo 294501" width="16.129" height="3.226" transform="translate(12.903 67.742)"/>
        <rect id="Rectángulo_294502" data-name="Rectángulo 294502" width="9.677" height="3.226" transform="translate(12.903 80.645)"/>
        <rect id="Rectángulo_294503" data-name="Rectángulo 294503" width="9.677" height="3.226" transform="translate(12.903 87.097)"/>
        <path id="Trazado_265872" data-name="Trazado 265872" d="M115.226,9.381V25.806h3.226V9.381a4.839,4.839,0,1,0-3.226,0m1.613-6.155a1.613,1.613,0,1,1-1.613,1.613,1.615,1.615,0,0,1,1.613-1.613" transform="translate(-89.419)"/>
        <path id="Trazado_265873" data-name="Trazado 265873" d="M4.839,73.677a4.832,4.832,0,0,0,4.542-3.226h9.974V76.9h3.226V67.226H9.381a4.83,4.83,0,1,0-4.542,6.452m0-6.452a1.613,1.613,0,1,1-1.613,1.613,1.615,1.615,0,0,1,1.613-1.613" transform="translate(0 -51.097)"/>
        <path id="Trazado_265874" data-name="Trazado 265874" d="M160,35.226V51.355h3.226v-12.9h3.226v9.677h9.677V44.9h-6.452V38.452h9.974a4.839,4.839,0,1,0,0-3.226h-9.974V32h-3.226v3.226Zm24.194,0a1.613,1.613,0,1,1-1.613,1.613,1.615,1.615,0,0,1,1.613-1.613" transform="translate(-127.742 -25.548)"/>
        <path id="Trazado_265875" data-name="Trazado 265875" d="M73.677,35.226H67.226V32H64v6.452h9.677Z" transform="translate(-51.097 -25.548)"/>
        <rect id="Rectángulo_294504" data-name="Rectángulo 294504" width="3.226" height="3.226" transform="translate(12.903)"/>
        <path id="Trazado_265876" data-name="Trazado 265876" d="M112.129,216.065a8.065,8.065,0,1,0-8.065,8.065,8.074,8.074,0,0,0,8.065-8.065m-8.065,4.839a4.839,4.839,0,1,1,4.839-4.839,4.845,4.845,0,0,1-4.839,4.839" transform="translate(-76.645 -166.065)"/>
        <rect id="Rectángulo_294505" data-name="Rectángulo 294505" width="3.226" height="3.226" transform="translate(38.71)"/>
        <rect id="Rectángulo_294506" data-name="Rectángulo 294506" width="3.226" height="3.226" transform="translate(51.613 19.355)"/>
      </g>
    </g>
  </g>
</svg>
