<svg xmlns="http://www.w3.org/2000/svg" xmlns:xlink="http://www.w3.org/1999/xlink" width="400" height="330.137" viewBox="0 0 400 330.137">
  <defs>
    <filter id="Elipse_6273" x="96" y="42" width="198" height="198" filterUnits="userSpaceOnUse">
      <feOffset dy="3" input="SourceAlpha"/>
      <feGaussianBlur stdDeviation="3" result="blur"/>
      <feFlood flood-opacity="0.161"/>
      <feComposite operator="in" in2="blur"/>
      <feComposite in="SourceGraphic"/>
    </filter>
    <clipPath id="clip-path">
      <rect id="Rectángulo_295984" data-name="Rectángulo 295984" width="100.017" height="100" fill="none"/>
    </clipPath>
  </defs>
  <g id="Grupo_179536" data-name="Grupo 179536" transform="translate(-1020 -4673)">
    <rect id="Background" width="400" height="330.137" rx="20" transform="translate(1020 4673)" fill="#bfe0fa"/>
    <path id="What_do_you_mean_by" data-name="What do you mean by" d="M-101.206-6.162h-5.625v3.809h6.6V0h-9.531V-14.219h9.512v2.373h-6.582v3.389h5.625Zm5.5-4.4V.576a3.78,3.78,0,0,1-.928,2.72,3.526,3.526,0,0,1-2.676.972,5.738,5.738,0,0,1-1.4-.166V1.865a5.3,5.3,0,0,0,.889.088q1.279,0,1.279-1.357V-10.566ZM-98.765-13.3a1.39,1.39,0,0,1,.425-1.045,1.6,1.6,0,0,1,1.157-.41,1.6,1.6,0,0,1,1.157.41A1.39,1.39,0,0,1-95.6-13.3a1.386,1.386,0,0,1-.435,1.055,1.6,1.6,0,0,1-1.147.41,1.6,1.6,0,0,1-1.147-.41A1.386,1.386,0,0,1-98.765-13.3ZM-88.638.2A5.187,5.187,0,0,1-92.422-1.23a5.068,5.068,0,0,1-1.46-3.8V-5.3a6.383,6.383,0,0,1,.615-2.847,4.515,4.515,0,0,1,1.743-1.934,4.893,4.893,0,0,1,2.573-.679,4.385,4.385,0,0,1,3.413,1.367,5.555,5.555,0,0,1,1.245,3.877v1.152h-6.729a2.622,2.622,0,0,0,.825,1.66,2.5,2.5,0,0,0,1.743.625A3.046,3.046,0,0,0-85.9-3.262l1.387,1.553a4.237,4.237,0,0,1-1.719,1.4A5.639,5.639,0,0,1-88.638.2Zm-.322-8.682a1.764,1.764,0,0,0-1.362.569,2.946,2.946,0,0,0-.669,1.628h3.926v-.226a2.1,2.1,0,0,0-.508-1.457A1.819,1.819,0,0,0-88.96-8.486ZM-76.968-2.92a.909.909,0,0,0-.513-.815,5.824,5.824,0,0,0-1.646-.532q-3.77-.791-3.77-3.2a2.9,2.9,0,0,1,1.167-2.349,4.708,4.708,0,0,1,3.052-.942,5.067,5.067,0,0,1,3.218.947,2.985,2.985,0,0,1,1.206,2.461h-2.822a1.366,1.366,0,0,0-.391-1,1.653,1.653,0,0,0-1.221-.4,1.689,1.689,0,0,0-1.1.322,1.017,1.017,0,0,0-.391.82.87.87,0,0,0,.444.757,4.571,4.571,0,0,0,1.5.5,12.244,12.244,0,0,1,1.777.474,2.92,2.92,0,0,1,2.236,2.842A2.756,2.756,0,0,1-75.464-.7a5.35,5.35,0,0,1-3.2.894,5.588,5.588,0,0,1-2.358-.474,3.957,3.957,0,0,1-1.616-1.3,3.018,3.018,0,0,1-.586-1.782h2.676A1.473,1.473,0,0,0-80-2.207a2.208,2.208,0,0,0,1.387.4,2.044,2.044,0,0,0,1.226-.308A.957.957,0,0,0-76.968-2.92Zm9.1-2.461a6.266,6.266,0,0,1,.605-2.8,4.432,4.432,0,0,1,1.743-1.9,5.086,5.086,0,0,1,2.642-.674,4.812,4.812,0,0,1,3.491,1.309A5.252,5.252,0,0,1-57.876-5.9l.02.723a5.523,5.523,0,0,1-1.357,3.9A4.718,4.718,0,0,1-62.856.2,4.742,4.742,0,0,1-66.5-1.27a5.62,5.62,0,0,1-1.362-3.984Zm2.822.2a3.95,3.95,0,0,0,.566,2.3,1.868,1.868,0,0,0,1.621.8,1.873,1.873,0,0,0,1.6-.787,4.322,4.322,0,0,0,.576-2.518,3.91,3.91,0,0,0-.576-2.289,1.873,1.873,0,0,0-1.621-.812,1.842,1.842,0,0,0-1.6.807A4.395,4.395,0,0,0-65.044-5.181Zm13.5-.181a6.193,6.193,0,0,1,1.157-3.916,3.75,3.75,0,0,1,3.12-1.484A3.289,3.289,0,0,1-44.565-9.57l.117-1h2.559V-.352a4.516,4.516,0,0,1-.63,2.412,4.045,4.045,0,0,1-1.772,1.563,6.231,6.231,0,0,1-2.676.537A5.794,5.794,0,0,1-49.233,3.7,4.021,4.021,0,0,1-50.9,2.5l1.25-1.719a3.306,3.306,0,0,0,2.559,1.182,2.42,2.42,0,0,0,1.748-.6,2.253,2.253,0,0,0,.625-1.7V-.908A3.264,3.264,0,0,1-47.29.2a3.74,3.74,0,0,1-3.081-1.489,6.191,6.191,0,0,1-1.177-3.95Zm2.822.21A3.856,3.856,0,0,0-48.149-2.9a1.833,1.833,0,0,0,1.582.817,1.96,1.96,0,0,0,1.846-.968V-7.5a1.955,1.955,0,0,0-1.826-.968,1.844,1.844,0,0,0-1.6.831A4.346,4.346,0,0,0-48.726-5.151ZM-33.784-7.92A7.667,7.667,0,0,0-34.8-8a2.067,2.067,0,0,0-2.1,1.084V0h-2.822V-10.566h2.666l.078,1.26a2.615,2.615,0,0,1,2.354-1.455,2.957,2.957,0,0,1,.879.127ZM-26.6,0a3.134,3.134,0,0,1-.283-.947A3.415,3.415,0,0,1-29.546.2a3.752,3.752,0,0,1-2.573-.9A2.89,2.89,0,0,1-33.14-2.969a2.986,2.986,0,0,1,1.245-2.578,6.144,6.144,0,0,1,3.6-.908H-27v-.605a1.741,1.741,0,0,0-.376-1.172,1.479,1.479,0,0,0-1.187-.439,1.682,1.682,0,0,0-1.118.342,1.161,1.161,0,0,0-.405.938h-2.822a2.835,2.835,0,0,1,.566-1.7,3.744,3.744,0,0,1,1.6-1.226,5.837,5.837,0,0,1,2.324-.444,4.611,4.611,0,0,1,3.1.981,3.433,3.433,0,0,1,1.147,2.759v4.58a5.052,5.052,0,0,0,.42,2.275V0Zm-2.334-1.963a2.431,2.431,0,0,0,1.152-.278A1.828,1.828,0,0,0-27-2.988V-4.8h-1.055q-2.119,0-2.256,1.465l-.01.166a1.13,1.13,0,0,0,.371.869A1.441,1.441,0,0,0-28.931-1.963Zm6.494-3.4A6.368,6.368,0,0,1-21.328-9.3,3.6,3.6,0,0,1-18.3-10.762a3.236,3.236,0,0,1,2.549,1.152V-15h2.832V0h-2.549L-15.6-1.123A3.321,3.321,0,0,1-18.315.2a3.587,3.587,0,0,1-2.993-1.47A6.573,6.573,0,0,1-22.437-5.361Zm2.822.21A4.171,4.171,0,0,0-19.1-2.872a1.686,1.686,0,0,0,1.5.792,1.888,1.888,0,0,0,1.846-1.105V-7.362a1.861,1.861,0,0,0-1.826-1.105Q-19.614-8.467-19.614-5.151Zm8.447-.23a6.267,6.267,0,0,1,.605-2.8,4.432,4.432,0,0,1,1.743-1.9,5.086,5.086,0,0,1,2.642-.674A4.812,4.812,0,0,1-2.686-9.453,5.252,5.252,0,0,1-1.177-5.9l.02.723a5.523,5.523,0,0,1-1.357,3.9A4.718,4.718,0,0,1-6.157.2,4.742,4.742,0,0,1-9.8-1.27a5.62,5.62,0,0,1-1.362-3.984Zm2.822.2a3.95,3.95,0,0,0,.566,2.3,1.868,1.868,0,0,0,1.621.8,1.873,1.873,0,0,0,1.6-.787,4.322,4.322,0,0,0,.576-2.518,3.91,3.91,0,0,0-.576-2.289,1.873,1.873,0,0,0-1.621-.812,1.842,1.842,0,0,0-1.6.807A4.395,4.395,0,0,0-8.345-5.181ZM6.3-2.92a.909.909,0,0,0-.513-.815,5.824,5.824,0,0,0-1.646-.532q-3.77-.791-3.77-3.2A2.9,2.9,0,0,1,1.543-9.819a4.708,4.708,0,0,1,3.052-.942,5.067,5.067,0,0,1,3.218.947A2.985,2.985,0,0,1,9.019-7.354H6.2a1.366,1.366,0,0,0-.391-1,1.653,1.653,0,0,0-1.221-.4,1.689,1.689,0,0,0-1.1.322,1.017,1.017,0,0,0-.391.82.87.87,0,0,0,.444.757,4.571,4.571,0,0,0,1.5.5,12.244,12.244,0,0,1,1.777.474A2.92,2.92,0,0,1,9.048-3.037,2.756,2.756,0,0,1,7.808-.7,5.35,5.35,0,0,1,4.6.2,5.588,5.588,0,0,1,2.246-.278,3.957,3.957,0,0,1,.63-1.577,3.018,3.018,0,0,1,.044-3.359H2.72a1.473,1.473,0,0,0,.557,1.152,2.208,2.208,0,0,0,1.387.4,2.044,2.044,0,0,0,1.226-.308A.957.957,0,0,0,6.3-2.92Zm9.1-2.441A6.368,6.368,0,0,1,16.514-9.3a3.6,3.6,0,0,1,3.032-1.465,3.236,3.236,0,0,1,2.549,1.152V-15h2.832V0H22.378l-.137-1.123A3.321,3.321,0,0,1,19.526.2a3.587,3.587,0,0,1-2.993-1.47A6.573,6.573,0,0,1,15.405-5.361Zm2.822.21a4.171,4.171,0,0,0,.518,2.279,1.686,1.686,0,0,0,1.5.792,1.888,1.888,0,0,0,1.846-1.105V-7.362a1.861,1.861,0,0,0-1.826-1.105Q18.228-8.467,18.228-5.151ZM31.978.2A5.187,5.187,0,0,1,28.193-1.23a5.068,5.068,0,0,1-1.46-3.8V-5.3a6.383,6.383,0,0,1,.615-2.847,4.515,4.515,0,0,1,1.743-1.934,4.893,4.893,0,0,1,2.573-.679,4.385,4.385,0,0,1,3.413,1.367,5.555,5.555,0,0,1,1.245,3.877v1.152H29.595a2.622,2.622,0,0,0,.825,1.66,2.5,2.5,0,0,0,1.743.625,3.046,3.046,0,0,0,2.549-1.182L36.1-1.709a4.237,4.237,0,0,1-1.719,1.4A5.639,5.639,0,0,1,31.978.2Zm-.322-8.682a1.764,1.764,0,0,0-1.362.569,2.946,2.946,0,0,0-.669,1.628H33.55v-.226a2.1,2.1,0,0,0-.508-1.457A1.819,1.819,0,0,0,31.655-8.486ZM45.884,0H43.052V-15h2.832Zm5.3,0H48.354V-10.566h2.832Zm-3-13.3a1.39,1.39,0,0,1,.425-1.045,1.6,1.6,0,0,1,1.157-.41,1.6,1.6,0,0,1,1.152.41,1.382,1.382,0,0,1,.43,1.045,1.386,1.386,0,0,1-.435,1.055,1.6,1.6,0,0,1-1.147.41,1.6,1.6,0,0,1-1.147-.41A1.386,1.386,0,0,1,48.188-13.3ZM63.032-5.186a6.4,6.4,0,0,1-1.084,3.96A3.591,3.591,0,0,1,58.921.2a3.3,3.3,0,0,1-2.744-1.318L56.05,0H53.511V-15h2.822v5.381A3.214,3.214,0,0,1,58.9-10.762a3.62,3.62,0,0,1,3.032,1.421,6.408,6.408,0,0,1,1.1,4ZM60.21-5.391A4.2,4.2,0,0,0,59.7-7.729a1.717,1.717,0,0,0-1.514-.737,1.862,1.862,0,0,0-1.855,1.1v4.17A1.887,1.887,0,0,0,58.208-2.08,1.742,1.742,0,0,0,60-3.428,6.952,6.952,0,0,0,60.21-5.391ZM69.634.2A5.187,5.187,0,0,1,65.85-1.23a5.068,5.068,0,0,1-1.46-3.8V-5.3A6.383,6.383,0,0,1,65-8.149a4.515,4.515,0,0,1,1.743-1.934,4.893,4.893,0,0,1,2.573-.679,4.385,4.385,0,0,1,3.413,1.367,5.555,5.555,0,0,1,1.245,3.877v1.152H67.251a2.622,2.622,0,0,0,.825,1.66,2.5,2.5,0,0,0,1.743.625,3.046,3.046,0,0,0,2.549-1.182l1.387,1.553a4.237,4.237,0,0,1-1.719,1.4A5.639,5.639,0,0,1,69.634.2Zm-.322-8.682a1.764,1.764,0,0,0-1.362.569,2.946,2.946,0,0,0-.669,1.628h3.926v-.226A2.1,2.1,0,0,0,70.7-7.971,1.819,1.819,0,0,0,69.312-8.486Zm12.207.566A7.667,7.667,0,0,0,80.5-8a2.067,2.067,0,0,0-2.1,1.084V0H75.581V-10.566h2.666l.078,1.26a2.615,2.615,0,0,1,2.354-1.455,2.957,2.957,0,0,1,.879.127Zm5.225-5.244v2.6H88.55V-8.5H86.743v5.273a1.259,1.259,0,0,0,.225.84,1.128,1.128,0,0,0,.859.254,4.5,4.5,0,0,0,.83-.068V-.059A5.81,5.81,0,0,1,86.948.2q-2.969,0-3.027-3V-8.5H82.378v-2.07h1.543v-2.6ZM96.245,0a3.134,3.134,0,0,1-.283-.947A3.415,3.415,0,0,1,93.3.2a3.752,3.752,0,0,1-2.573-.9A2.89,2.89,0,0,1,89.7-2.969a2.986,2.986,0,0,1,1.245-2.578,6.144,6.144,0,0,1,3.6-.908h1.3v-.605a1.741,1.741,0,0,0-.376-1.172,1.479,1.479,0,0,0-1.187-.439,1.682,1.682,0,0,0-1.118.342,1.161,1.161,0,0,0-.405.938H89.937a2.835,2.835,0,0,1,.566-1.7,3.744,3.744,0,0,1,1.6-1.226,5.837,5.837,0,0,1,2.324-.444,4.611,4.611,0,0,1,3.1.981,3.433,3.433,0,0,1,1.147,2.759v4.58A5.052,5.052,0,0,0,99.1-.166V0ZM93.911-1.963a2.431,2.431,0,0,0,1.152-.278,1.828,1.828,0,0,0,.781-.747V-4.8H94.79q-2.119,0-2.256,1.465l-.01.166A1.13,1.13,0,0,0,92.9-2.3,1.441,1.441,0,0,0,93.911-1.963Zm6.494-3.4A6.368,6.368,0,0,1,101.514-9.3a3.6,3.6,0,0,1,3.032-1.465,3.236,3.236,0,0,1,2.549,1.152V-15h2.832V0h-2.549l-.137-1.123A3.321,3.321,0,0,1,104.526.2a3.587,3.587,0,0,1-2.993-1.47A6.573,6.573,0,0,1,100.405-5.361Zm2.822.21a4.171,4.171,0,0,0,.518,2.279,1.686,1.686,0,0,0,1.5.792,1.888,1.888,0,0,0,1.846-1.105V-7.362a1.861,1.861,0,0,0-1.826-1.105Q103.228-8.467,103.228-5.151Z" transform="translate(1220 4950.137)" fill="#12263f"/>
    <g id="Grupo_179519" data-name="Grupo 179519">
      <g transform="matrix(1, 0, 0, 1, 1020, 4673)" filter="url(#Elipse_6273)">
        <circle id="Elipse_6273-2" data-name="Elipse 6273" cx="90" cy="90" r="90" transform="translate(105 48)" fill="#fff"/>
      </g>
      <g id="Grupo_179104" data-name="Grupo 179104" transform="translate(1169.991 4761.723)">
        <g id="Grupo_179103" data-name="Grupo 179103" clip-path="url(#clip-path)">
          <path id="Trazado_268136" data-name="Trazado 268136" d="M50.026,27.9c-.8-1.983-.22-1.068-1.61-1.9a8.473,8.473,0,0,1-4.289-7.357V16.783a1.594,1.594,0,0,0-1.594-1.594H38.482a3.392,3.392,0,0,0-3.391,2.78L33.125,28.818,30.8,29.869c-.289-.033.728.645-9.239-6.272a3.391,3.391,0,0,0-4.323.39c-1.831,1.848-3.78,3.814-6.781,6.781a3.391,3.391,0,0,0-.39,4.323c6.747,9.764,6.29,8.933,6.29,9.1l-1,2.356c0,.17.1.068-10.883,2.051A3.392,3.392,0,0,0,1.7,51.992v9.544a3.391,3.391,0,0,0,2.78,3.39l10.816,2.051c.016.017-.1-.22,1.034,2.441-.017.17.491-.746-6.29,9.1a3.391,3.391,0,0,0,.39,4.323c1.865,1.848,3.831,3.8,6.781,6.781a3.391,3.391,0,0,0,4.323.39c9.8-6.781,8.933-6.289,9.1-6.289l2.356,1c.17,0,.068-.1,2.052,10.883a3.39,3.39,0,0,0,3.39,2.78h9.544a3.39,3.39,0,0,0,3.39-2.78L53.332,84.76l2.322-1.051c.288.034-.729-.644,9.239,6.221a3.391,3.391,0,0,0,4.323-.39c.339-.339,2.8-2.831,6.78-6.781a3.39,3.39,0,0,0,.39-4.322l-.932-1.34a10.167,10.167,0,0,1-6.967-2l-1.24-.93A29.2,29.2,0,0,1,55.79,83.658a.188.188,0,0,1-.136,0l-2.238.949a29.243,29.243,0,0,1-10.171,1.8,28.7,28.7,0,0,1-12.426-2.746.185.185,0,0,1-.135,0A29.634,29.634,0,0,1,16.376,69.35s-.949-2.288-1.034-2.458a29.873,29.873,0,0,1,0-20.206c.085-.17,1.017-2.441,1.034-2.458A29.638,29.638,0,0,1,30.684,29.92a.185.185,0,0,1,.135,0l2.238-.949a29.717,29.717,0,0,1,16.952-1.017" fill="#cfbdb0"/>
          <path id="Trazado_268137" data-name="Trazado 268137" d="M81.37,54.246V66.112L74.589,71.2l-6.781-5.086V54.246Z" fill="#9e9e9e"/>
          <path id="Trazado_268138" data-name="Trazado 268138" d="M76.284,54.246V66.112L72.046,69.3l2.543,1.9,6.781-5.086V54.246Z" fill="#707070"/>
          <path id="Trazado_268139" data-name="Trazado 268139" d="M59.332,37.294H89.845a1.7,1.7,0,0,1,1.7,1.695v5.086a1.7,1.7,0,0,1-1.7,1.695H59.332a1.7,1.7,0,0,1-1.695-1.695V38.989a1.7,1.7,0,0,1,1.695-1.695" fill="#81b88c"/>
          <path id="Trazado_268140" data-name="Trazado 268140" d="M59.332,37.294H84.76a1.7,1.7,0,0,1,1.695,1.695v5.086A1.7,1.7,0,0,1,84.76,45.77H59.332a1.7,1.7,0,0,1-1.695-1.695V38.989a1.7,1.7,0,0,1,1.695-1.695" fill="#a2e6b0"/>
          <path id="Trazado_268141" data-name="Trazado 268141" d="M98.322,3.39V18.647a1.7,1.7,0,0,1-1.695,1.695H52.552a1.515,1.515,0,0,1-.814-.22,1.694,1.694,0,0,1-.881-1.475V3.39a1.7,1.7,0,0,1,1.695-1.7H96.627a1.7,1.7,0,0,1,1.695,1.7" fill="#81b88c"/>
          <path id="Trazado_268142" data-name="Trazado 268142" d="M93.236,3.39V18.647a1.7,1.7,0,0,1-1.695,1.695H52.551a1.514,1.514,0,0,1-.813-.22,1.7,1.7,0,0,1-.882-1.475V3.39a1.7,1.7,0,0,1,1.695-1.7h38.99a1.7,1.7,0,0,1,1.695,1.7" fill="#a2e6b0"/>
          <path id="Trazado_268143" data-name="Trazado 268143" d="M43.228,67.807A11.018,11.018,0,1,0,32.209,56.789,11.018,11.018,0,0,0,43.228,67.807m0-18.647A7.629,7.629,0,1,1,35.6,56.789a7.629,7.629,0,0,1,7.628-7.629"/>
          <path id="Trazado_268144" data-name="Trazado 268144" d="M4.171,46.991A5.085,5.085,0,0,0,0,52.076v9.6a5.085,5.085,0,0,0,4.17,5.085l9.917,1.8c.1.272.22.543.339.8L8.68,77.47a5.085,5.085,0,0,0,.594,6.493l6.78,6.78a5.087,5.087,0,0,0,6.493.577l8.29-5.747.8.339,1.8,9.917A5.086,5.086,0,0,0,38.516,100h9.6a5.084,5.084,0,0,0,5.085-4.17l1.8-9.917.8-.339,8.289,5.747a5.085,5.085,0,0,0,6.493-.594l5.458-5.441a1.7,1.7,0,0,0-2.339-2.475l-5.526,5.526a1.7,1.7,0,0,1-2.153.2l-6.781-4.713A30.994,30.994,0,0,0,69.1,74.588a1.7,1.7,0,0,0-2.814-1.9,27.971,27.971,0,1,1-15.85-42.855,1.7,1.7,0,1,0,.848-3.288,31.919,31.919,0,0,0-15.986,0l1.458-8.12a1.694,1.694,0,0,1,1.7-1.39h5.628a1.7,1.7,0,0,0,0-3.391H38.431a5.087,5.087,0,0,0-5.086,4.17l-1.8,9.917-.8.339-8.2-5.831a5.085,5.085,0,0,0-6.492.593L9.274,29.615A5.085,5.085,0,0,0,8.7,36.107l5.747,8.29c-.119.254-.237.525-.339.8Zm-.78,14.595V51.991A1.7,1.7,0,0,1,4.781,50.3l8.1-1.458a31.453,31.453,0,0,0,0,15.867l-8.1-1.458a1.7,1.7,0,0,1-1.39-1.661M51.162,87.133l-1.458,8.1a1.7,1.7,0,0,1-1.695,1.39H38.431a1.7,1.7,0,0,1-1.695-1.39l-1.458-8.1a31.274,31.274,0,0,0,15.884,0M27.429,83.861l-6.781,4.7A1.694,1.694,0,0,1,18.5,88.37l-6.781-6.781a1.7,1.7,0,0,1-.2-2.153l4.7-6.78a31.414,31.414,0,0,0,11.2,11.205ZM11.647,32.022l6.781-6.781a1.7,1.7,0,0,1,2.153-.2l6.78,4.695A31.421,31.421,0,0,0,16.1,40.99L11.41,34.209A1.7,1.7,0,0,1,11.647,32.022Z"/>
          <path id="Trazado_268145" data-name="Trazado 268145" d="M96.627,0H52.552a3.391,3.391,0,0,0-3.391,3.39V18.647a3.257,3.257,0,0,0,1.695,2.9,3.658,3.658,0,0,0,2.272.491C57.993,34.226,56.874,31.4,58.6,35.7a3.389,3.389,0,0,0-2.661,3.288v5.086a3.39,3.39,0,0,0,3.39,3.39h1.7v5.086a3.39,3.39,0,0,0,3.39,3.39h1.695V66.112a1.7,1.7,0,0,0,.678,1.357l6.1,4.577v5.933a1.695,1.695,0,1,0,3.39,0V72.046l6.1-4.577a1.7,1.7,0,0,0,.678-1.357V55.941H84.76a3.391,3.391,0,0,0,3.391-3.39V47.465h1.695a3.39,3.39,0,0,0,3.39-3.39V38.989A3.39,3.39,0,0,0,90.609,35.7l5.475-13.664h.543a3.39,3.39,0,0,0,3.39-3.39V3.39A3.39,3.39,0,0,0,96.627,0M79.675,65.265l-5.086,3.814L69.5,65.265V55.941H79.675Zm10.171-21.19H74.589a1.695,1.695,0,0,0,0,3.39H84.76v5.086H64.418V47.465h3.39a1.695,1.695,0,1,0,0-3.39H59.332V38.989H89.846ZM87,35.6H62.18L56.756,22.037h35.6Zm9.629-16.952H52.552V3.39H96.627Z"/>
          <path id="Trazado_268146" data-name="Trazado 268146" d="M57.637,10.171h3.39a1.695,1.695,0,1,0,0-3.39h-3.39a1.695,1.695,0,1,0,0,3.39"/>
          <path id="Trazado_268147" data-name="Trazado 268147" d="M67.808,10.171H91.541a1.695,1.695,0,0,0,0-3.39H67.808a1.695,1.695,0,1,0,0,3.39"/>
          <path id="Trazado_268148" data-name="Trazado 268148" d="M33.718,38.227a1.7,1.7,0,0,0-2.272-.746c-7.153,3.577-11.1,10.731-11.1,20.156a1.695,1.695,0,0,0,3.39,0c0-8.069,3.272-14.155,9.239-17.138a1.7,1.7,0,0,0,.746-2.272"/>
          <path id="Trazado_268149" data-name="Trazado 268149" d="M37.295,33.9A1.695,1.695,0,1,1,35.6,35.6,1.7,1.7,0,0,1,37.295,33.9"/>
        </g>
      </g>
    </g>
  </g>
</svg>
