<svg xmlns="http://www.w3.org/2000/svg" xmlns:xlink="http://www.w3.org/1999/xlink" width="198" height="198" viewBox="0 0 198 198">
  <defs>
    <filter id="Elipse_4965" x="0" y="0" width="198" height="198" filterUnits="userSpaceOnUse">
      <feOffset dy="3" input="SourceAlpha"/>
      <feGaussianBlur stdDeviation="3" result="blur"/>
      <feFlood flood-opacity="0.161"/>
      <feComposite operator="in" in2="blur"/>
      <feComposite in="SourceGraphic"/>
    </filter>
  </defs>
  <g id="Grupo_179512" data-name="Grupo 179512" transform="translate(-701 -618.137)">
    <g transform="matrix(1, 0, 0, 1, 701, 618.14)" filter="url(#Elipse_4965)">
      <circle id="Elipse_4965-2" data-name="Elipse 4965" cx="90" cy="90" r="90" transform="translate(9 6)" fill="#fff"/>
    </g>
    <g id="Grupo_175324" data-name="Grupo 175324" transform="translate(746 660.137)">
      <g id="Grupo_175326" data-name="Grupo 175326" transform="translate(0 0)">
        <path id="Trazado_265877" data-name="Trazado 265877" d="M37.513,48.068v9h-1.8a5.291,5.291,0,0,0-4.013,1.8H29.5a5.018,5.018,0,0,0-3.743,1.8,10.776,10.776,0,0,1-16.718-.792,1.8,1.8,0,0,1,1.512-2.807h4.031a1.825,1.825,0,0,0,1.44-.72l1.35-1.8a1.837,1.837,0,0,0,0-2.16l-1.35-1.8a1.825,1.825,0,0,0-1.44-.72H10.554A1.8,1.8,0,0,1,9.043,47.06a10.776,10.776,0,0,1,16.718-.792,5.018,5.018,0,0,0,3.743,1.8Z" transform="translate(-6.892 -33.671)" fill="#48a5f0" fill-rule="evenodd"/>
        <path id="Trazado_265878" data-name="Trazado 265878" d="M384.128,58.858h4.389a5.066,5.066,0,0,1,3.754,1.8,10.776,10.776,0,0,0,16.72-.788,1.8,1.8,0,0,0-1.5-2.811h-4.038a1.8,1.8,0,0,1-1.44-.72l-1.35-1.8a1.8,1.8,0,0,1,0-2.16l1.35-1.8a1.8,1.8,0,0,1,1.44-.72h4.038a1.8,1.8,0,0,0,1.5-2.809,10.776,10.776,0,0,0-16.72-.79,5.066,5.066,0,0,1-3.754,1.8h-4.389" transform="translate(-303.118 -33.663)" fill="#48a5f0" fill-rule="evenodd"/>
        <path id="Trazado_265879" data-name="Trazado 265879" d="M452.6,57.091a1.8,1.8,0,0,1,1.5,2.809,10.774,10.774,0,0,1-5.968,4.038A10.715,10.715,0,0,0,459.5,59.9a1.8,1.8,0,0,0-1.5-2.809h-4.038a1.8,1.8,0,0,1-1.44-.72V50.612a1.8,1.8,0,0,1,1.44-.72H458a1.8,1.8,0,0,0,1.5-2.809,10.715,10.715,0,0,0-11.367-4.029,10.774,10.774,0,0,1,5.969,4.038,1.8,1.8,0,0,1-1.5,2.8Z" transform="translate(-353.621 -33.696)" fill="#3984c0" fill-rule="evenodd"/>
        <path id="Trazado_265880" data-name="Trazado 265880" d="M195.584,20.231v12.6a6.3,6.3,0,1,1-12.6,0,6.3,6.3,0,1,1-12.6,0,6.3,6.3,0,0,1-6.3,6.3,5.454,5.454,0,0,1-1.44-.18,5.921,5.921,0,0,0,.54-2.52,6.322,6.322,0,0,0-5.4-6.227,4.93,4.93,0,0,0-.9-.072H145.2v-11.7a6.3,6.3,0,1,1,12.6,0v-3.6a6.3,6.3,0,1,1,12.6,0v3.6a6.3,6.3,0,1,1,12.6,0v1.8a6.3,6.3,0,1,1,12.6,0" transform="translate(-114.574 -6.733)" fill="#ffe0b2" fill-rule="evenodd"/>
        <path id="Trazado_265881" data-name="Trazado 265881" d="M348.606,35.989a6.193,6.193,0,0,0-7.144-1.22,6.258,6.258,0,0,1,3.6,5.665v12.6a6.3,6.3,0,0,1-3.6,5.667,6.232,6.232,0,0,0,2.7.632,6.3,6.3,0,0,0,6.3-6.3v-12.6a6.226,6.226,0,0,0-1.854-4.445" transform="translate(-269.45 -26.937)" fill="#dfc49c" fill-rule="evenodd"/>
        <path id="Trazado_265882" data-name="Trazado 265882" d="M168.649,113.631v15.027a7.132,7.132,0,0,1-1.1,3.815l-6.8,10.906a7.131,7.131,0,0,0-1.1,3.815v42.921a3.61,3.61,0,0,1-3.6,3.6H129.057a3.61,3.61,0,0,1-3.6-3.6v-42a7.2,7.2,0,0,0-2.106-5.093l-10.186-10.186a7.2,7.2,0,0,1-2.106-5.093v-11.41a5.419,5.419,0,0,1,5.4-5.4h13.5a4.929,4.929,0,0,1,.9.072,6.322,6.322,0,0,1,5.4,6.227,5.92,5.92,0,0,1-.54,2.519,5.445,5.445,0,0,0,1.44.18,6.3,6.3,0,0,0,6.3-6.3,6.3,6.3,0,1,0,12.6,0,6.3,6.3,0,1,0,12.6,0" transform="translate(-87.639 -87.537)" fill="#ffe0b2" fill-rule="evenodd"/>
        <path id="Trazado_265883" data-name="Trazado 265883" d="M311.392,129.941v8.818a7.133,7.133,0,0,1-1.1,3.815l-6.8,10.906a7.133,7.133,0,0,0-1.1,3.817v42.921a3.61,3.61,0,0,1-3.6,3.6h5.4a3.61,3.61,0,0,0,3.6-3.6V157.3a7.13,7.13,0,0,1,1.1-3.815l6.8-10.906a7.133,7.133,0,0,0,1.1-3.815V123.734A6.288,6.288,0,0,1,311.392,129.941Z" transform="translate(-235.781 -97.639)" fill="#dfc49c" fill-rule="evenodd"/>
        <path id="Trazado_265884" data-name="Trazado 265884" d="M145.2,156.526h11.7a6.277,6.277,0,0,0,5.759-3.779" transform="translate(-114.574 -120.534)" fill="#ffe0b2" fill-rule="evenodd"/>
        <path id="Trazado_265885" data-name="Trazado 265885" d="M100.806,66.586a7.2,7.2,0,0,0-6.943,5.4H73.812v-7.2H84.941a5.4,5.4,0,1,0,0-3.6H73.812V59.652a5.386,5.386,0,0,1,.821-2.86l1.753-2.8H93.608a5.4,5.4,0,0,0,5.4-5.4V46.459a5.4,5.4,0,1,0-3.6,0V48.59a1.8,1.8,0,0,1-1.8,1.8H78.635l2.807-4.5a9,9,0,0,0,1.368-4.769V26.994H85.4a3.274,3.274,0,0,1,2.412,1.2,12.576,12.576,0,0,0,19.511-.919,3.5,3.5,0,0,0,.293-3.675,3.615,3.615,0,0,0-3.239-2H100.34l-1.35-1.8,1.348-1.8h4.038a3.617,3.617,0,0,0,3.239-2,3.5,3.5,0,0,0-.291-3.677,12.578,12.578,0,0,0-19.513-.92A3.274,3.274,0,0,1,85.4,12.6H82.718A8.048,8.048,0,0,0,69.1,7.679,7.987,7.987,0,0,0,57.117,5.373a7.862,7.862,0,0,0-1.871-2.982A7.975,7.975,0,0,0,49.517,0a8.084,8.084,0,0,0-7.6,5.384,7.942,7.942,0,0,0-5-1.785,8.107,8.107,0,0,0-8.1,8.1v.9H22.614a3.239,3.239,0,0,1-2.4-1.2A12.574,12.574,0,0,0,.7,12.324a3.5,3.5,0,0,0-.288,3.669,3.627,3.627,0,0,0,3.248,2H7.7l1.35,1.8L7.7,21.6H3.664a3.626,3.626,0,0,0-3.239,2,3.5,3.5,0,0,0,.288,3.67,12.574,12.574,0,0,0,19.515.919,3.5,3.5,0,0,1,1.62-1.065,7.111,7.111,0,0,0-.225,1.672V40.209a8.941,8.941,0,0,0,2.635,6.364l3.819,3.817H14.424a1.8,1.8,0,0,1-1.8-1.8V46.459a5.4,5.4,0,1,0-3.6,0V48.59a5.4,5.4,0,0,0,5.4,5.4H31.675l2.764,2.762a5.369,5.369,0,0,1,1.58,3.819v.617H23.091a5.4,5.4,0,1,0,0,3.6H36.02v7.2H14.168a7.2,7.2,0,1,0,0,3.6H36.02v7.2H23.091a5.4,5.4,0,1,0,0,3.6H36.02v3.6h-7.2a5.4,5.4,0,0,0-5.4,5.4v2.131a5.4,5.4,0,1,0,3.6,0V95.38a1.8,1.8,0,0,1,1.8-1.8h7.2v9a5.4,5.4,0,0,0,5.4,5.4H68.413a5.4,5.4,0,0,0,5.4-5.4v-9h5.4a1.8,1.8,0,0,1,1.8,1.8v2.131a5.4,5.4,0,1,0,3.6,0V95.38a5.4,5.4,0,0,0-5.4-5.4h-5.4v-3.6H84.941a5.4,5.4,0,1,0,0-3.6H73.812v-7.2H93.863a7.186,7.186,0,1,0,6.943-9Zm-10.8-5.4a1.8,1.8,0,1,1-1.8,1.8,1.8,1.8,0,0,1,1.8-1.8m7.2-21.6a1.8,1.8,0,1,1-1.8,1.8,1.8,1.8,0,0,1,1.8-1.8m-86.382,0a1.8,1.8,0,1,1-1.8,1.8,1.8,1.8,0,0,1,1.8-1.8m7.2,25.195a1.8,1.8,0,1,1,1.8-1.8,1.8,1.8,0,0,1-1.8,1.8m-10.8,12.6a3.6,3.6,0,1,1,3.6-3.6,3.6,3.6,0,0,1-3.6,3.6m10.8,9a1.8,1.8,0,1,1,1.8-1.8,1.8,1.8,0,0,1-1.8,1.8m7.2,18a1.8,1.8,0,1,1,1.8-1.8,1.8,1.8,0,0,1-1.8,1.8m57.588,0a1.8,1.8,0,1,1,1.8-1.8,1.8,1.8,0,0,1-1.8,1.8m7.2-21.6a1.8,1.8,0,1,1-1.8,1.8,1.8,1.8,0,0,1,1.8-1.8M90.5,13.8a8.971,8.971,0,0,1,13.88.6h-4.038a3.614,3.614,0,0,0-2.879,1.44l-1.348,1.8a3.611,3.611,0,0,0,0,4.319l1.35,1.8a3.6,3.6,0,0,0,2.879,1.44l4.085-.056a8.977,8.977,0,0,1-13.927.655,6.826,6.826,0,0,0-5.1-2.4H82.81V16.2H85.4A6.828,6.828,0,0,0,90.5,13.8ZM74.712,9a4.5,4.5,0,0,1,4.5,4.5v12.6a4.5,4.5,0,0,1-9,0V13.5a4.5,4.5,0,0,1,4.5-4.5m-12.6-1.8a4.5,4.5,0,0,1,4.5,4.5v14.4a4.5,4.5,0,0,1-9,0V11.7a4.5,4.5,0,0,1,4.5-4.5m-17.1.9a4.5,4.5,0,1,1,9,0v18a4.5,4.5,0,0,1-3.682,4.416,7.586,7.586,0,0,0,.083-.817,8.088,8.088,0,0,0-5.4-7.6Zm-8.1-.9a4.528,4.528,0,0,1,4.5,4.5v9.9h-9V11.7a4.5,4.5,0,0,1,4.5-4.5M17.53,25.8a8.959,8.959,0,0,1-13.866-.6H7.7a3.628,3.628,0,0,0,2.88-1.44l1.37-1.823a3.646,3.646,0,0,0-.022-4.3l-1.355-1.8A3.629,3.629,0,0,0,7.69,14.4L3.6,14.456a8.973,8.973,0,0,1,13.92-.666,6.782,6.782,0,0,0,5.1,2.406h6.207v5.4a7.138,7.138,0,0,0-4.712,1.8h-1.5a6.767,6.767,0,0,0-5.084,2.4M70.212,59.652v42.927a1.8,1.8,0,0,1-1.8,1.8H41.418a1.8,1.8,0,0,1-1.8-1.8V60.57a8.941,8.941,0,0,0-2.635-6.363L26.8,44.028a5.369,5.369,0,0,1-1.58-3.819V28.794a3.6,3.6,0,0,1,3.6-3.6h13.5a4.5,4.5,0,0,1,0,9h-11.7a1.8,1.8,0,0,0,0,3.6h11.7a8.1,8.1,0,0,0,6.743-3.628c.151,0,.3.029.455.029a8.052,8.052,0,0,0,6.3-3.072,7.994,7.994,0,0,0,12.6,0,8.021,8.021,0,0,0,10.8,1.7v8.305a5.386,5.386,0,0,1-.821,2.86l-6.81,10.9a9,9,0,0,0-1.368,4.764m30.594,17.732a3.6,3.6,0,1,1,3.6-3.6,3.6,3.6,0,0,1-3.6,3.6" transform="translate(0 0)"/>
      </g>
    </g>
  </g>
</svg>
