<svg xmlns="http://www.w3.org/2000/svg" xmlns:xlink="http://www.w3.org/1999/xlink" width="198" height="198" viewBox="0 0 198 198">
  <defs>
    <filter id="Elipse_4964" x="0" y="0" width="198" height="198" filterUnits="userSpaceOnUse">
      <feOffset dy="3" input="SourceAlpha"/>
      <feGaussianBlur stdDeviation="3" result="blur"/>
      <feFlood flood-opacity="0.161"/>
      <feComposite operator="in" in2="blur"/>
      <feComposite in="SourceGraphic"/>
    </filter>
    <clipPath id="clip-path">
      <rect id="Rectángulo_294515" data-name="Rectángulo 294515" width="110" height="103.125" fill="#a2e6b0"/>
    </clipPath>
  </defs>
  <g id="Grupo_179513" data-name="Grupo 179513" transform="translate(-1115 -618.137)">
    <g transform="matrix(1, 0, 0, 1, 1115, 618.14)" filter="url(#Elipse_4964)">
      <circle id="Elipse_4964-2" data-name="Elipse 4964" cx="90" cy="90" r="90" transform="translate(9 6)" fill="#fff"/>
    </g>
    <g id="Grupo_175328" data-name="Grupo 175328" transform="translate(1159 662.137)">
      <g id="Grupo_175328-2" data-name="Grupo 175328" clip-path="url(#clip-path)">
        <path id="Trazado_265901" data-name="Trazado 265901" d="M309.281,46.875v72.188a6.875,6.875,0,0,1-6.875,6.875H256v-6.875h39.531V108.8q2.552-.052,5.156-.052V40h1.719a6.875,6.875,0,0,1,6.875,6.875" transform="translate(-201 -31.406)" fill="#a2e6b0"/>
        <path id="Trazado_265902" data-name="Trazado 265902" d="M295.531,83.677c-15.125.361-28.72,2.544-39.531,10.261V18.313C268.031,9.719,283.5,8,300.688,8V83.625q-2.6,0-5.156.052" transform="translate(-201 -6.281)" fill="#e1e4ed"/>
        <path id="Trazado_265903" data-name="Trazado 265903" d="M295.531,360.24V370.5H256c10.811-7.717,24.406-9.9,39.531-10.261" transform="translate(-201 -282.845)" fill="#afb4c8"/>
        <path id="Trazado_265904" data-name="Trazado 265904" d="M61.281,119.063v6.875H14.875A6.875,6.875,0,0,1,8,119.063V46.875A6.875,6.875,0,0,1,14.875,40h1.719v68.75q2.6,0,5.156.052v10.261Z" transform="translate(-6.281 -31.406)" fill="#a2e6b0"/>
        <path id="Trazado_265905" data-name="Trazado 265905" d="M53.156,83.677Q50.6,83.625,48,83.625V8C65.188,8,80.656,9.719,92.688,18.313V93.938c-10.811-7.717-24.406-9.9-39.531-10.261" transform="translate(-37.688 -6.281)" fill="#f6fafd"/>
        <path id="Trazado_265906" data-name="Trazado 265906" d="M111.531,370.5H72V360.24c15.125.361,28.72,2.544,39.531,10.261" transform="translate(-56.531 -282.845)" fill="#afb4c8"/>
        <path id="Trazado_265907" data-name="Trazado 265907" d="M353.25,297.188v6.875H347.7a15.064,15.064,0,0,1-1.994,4.778l3.936,3.936-4.864,4.864-3.936-3.936a15.064,15.064,0,0,1-4.778,1.994v5.552h-6.875V315.7a15.064,15.064,0,0,1-4.778-1.994l-3.936,3.936-4.864-4.864,3.936-3.936a15.065,15.065,0,0,1-1.994-4.778H312v-6.875h5.552a15.065,15.065,0,0,1,1.994-4.778l-3.936-3.936,4.864-4.864,3.936,3.936a15.064,15.064,0,0,1,4.778-1.994V280h6.875v5.552a15.064,15.064,0,0,1,4.778,1.994l3.936-3.936,4.864,4.864-3.936,3.936a15.064,15.064,0,0,1,1.994,4.778Zm-12.031,3.438a8.594,8.594,0,1,0-8.594,8.594,8.594,8.594,0,0,0,8.594-8.594" transform="translate(-244.969 -219.844)" fill="#cfbdb0"/>
        <path id="Trazado_265908" data-name="Trazado 265908" d="M87.648,283.438c11.7.516,19.994,2.063,26.9,5.019L115.9,285.3c-7.3-3.126-15.974-4.761-28.1-5.3Z" transform="translate(-68.817 -219.844)"/>
        <path id="Trazado_265909" data-name="Trazado 265909" d="M87.648,243.438c11.7.516,19.994,2.062,26.9,5.019L115.9,245.3c-7.3-3.126-15.974-4.761-28.1-5.3Z" transform="translate(-68.817 -188.438)"/>
        <path id="Trazado_265910" data-name="Trazado 265910" d="M87.648,203.438c11.7.516,19.994,2.062,26.9,5.019L115.9,205.3c-7.3-3.126-15.974-4.761-28.1-5.3Z" transform="translate(-68.817 -157.031)"/>
        <path id="Trazado_265911" data-name="Trazado 265911" d="M87.648,163.438c11.7.516,19.994,2.063,26.9,5.019L115.9,165.3c-7.3-3.126-15.974-4.761-28.1-5.3Z" transform="translate(-68.817 -125.625)"/>
        <path id="Trazado_265912" data-name="Trazado 265912" d="M87.648,123.438c11.7.516,19.994,2.063,26.9,5.019L115.9,125.3c-7.3-3.126-15.974-4.761-28.1-5.3Z" transform="translate(-68.817 -94.219)"/>
        <path id="Trazado_265913" data-name="Trazado 265913" d="M115.9,85.3c-7.3-3.125-15.974-4.759-28.1-5.3l-.151,3.438c11.7.516,19.994,2.062,26.9,5.019Z" transform="translate(-68.817 -62.813)"/>
        <path id="Trazado_265914" data-name="Trazado 265914" d="M294.2,248.455c6.9-2.955,15.2-4.5,26.9-5.017L320.95,240c-12.133.535-20.8,2.169-28.1,5.294Z" transform="translate(-229.931 -188.438)"/>
        <path id="Trazado_265915" data-name="Trazado 265915" d="M294.2,208.455c6.9-2.955,15.2-4.5,26.9-5.017L320.95,200c-12.133.535-20.8,2.169-28.1,5.294Z" transform="translate(-229.931 -157.031)"/>
        <path id="Trazado_265916" data-name="Trazado 265916" d="M294.2,168.455c6.9-2.955,15.2-4.5,26.9-5.017L320.95,160c-12.133.535-20.8,2.169-28.1,5.294Z" transform="translate(-229.931 -125.625)"/>
        <path id="Trazado_265917" data-name="Trazado 265917" d="M294.2,128.455c6.9-2.955,15.2-4.5,26.9-5.017L320.95,120c-12.133.535-20.8,2.169-28.1,5.294Z" transform="translate(-229.931 -94.219)"/>
        <path id="Trazado_265918" data-name="Trazado 265918" d="M320.95,80c-12.133.535-20.8,2.169-28.1,5.294l1.354,3.159c6.9-2.953,15.2-4.5,26.9-5.015Z" transform="translate(-229.931 -62.813)"/>
        <path id="Trazado_265919" data-name="Trazado 265919" d="M101.406,6.875V1.719A1.719,1.719,0,0,0,99.688,0C84.1,0,67.923,1.224,55,9.94,42.077,1.224,25.905,0,10.313,0A1.719,1.719,0,0,0,8.594,1.719V6.875A8.6,8.6,0,0,0,0,15.469V87.656A8.6,8.6,0,0,0,8.594,96.25H65.313V92.813H56.719V88.571a44.383,44.383,0,0,1,7.552-4.137l-1.354-3.159a48.134,48.134,0,0,0-6.2,3.25V12.949c11.734-8.015,26.66-9.414,41.25-9.512v55h3.437V10.313a5.156,5.156,0,0,1,5.156,5.156V63.594H110V15.469a8.6,8.6,0,0,0-8.594-8.594M17.188,79.169c11.132.357,22.218,1.829,31.7,6.768h-31.7ZM12.031,3.438c14.59.093,29.516,1.492,41.25,9.506V84.48c-12.14-7.423-26.876-8.759-41.25-8.855ZM8.594,92.813a5.156,5.156,0,0,1-5.156-5.156V15.469a5.156,5.156,0,0,1,5.156-5.156V77.344a1.719,1.719,0,0,0,1.719,1.719q1.719,0,3.438.026v8.568a1.719,1.719,0,0,0,1.719,1.719H53.281v3.438Z"/>
        <path id="Trazado_265920" data-name="Trazado 265920" d="M346.969,289.188H342.73a16.819,16.819,0,0,0-1.157-2.783l3-3a1.719,1.719,0,0,0,0-2.43l-4.861-4.861a1.719,1.719,0,0,0-2.43,0l-3,3a16.929,16.929,0,0,0-2.783-1.157v-4.238A1.719,1.719,0,0,0,329.781,272h-6.875a1.719,1.719,0,0,0-1.719,1.719v4.238a16.929,16.929,0,0,0-2.783,1.157l-3-3a1.719,1.719,0,0,0-2.43,0l-4.861,4.861a1.719,1.719,0,0,0,0,2.43l3,3a16.822,16.822,0,0,0-1.157,2.783h-4.238A1.719,1.719,0,0,0,304,290.906v6.875a1.719,1.719,0,0,0,1.719,1.719h4.238a16.822,16.822,0,0,0,1.157,2.783l-3,3a1.719,1.719,0,0,0,0,2.43l4.861,4.861a1.719,1.719,0,0,0,2.43,0l3-3a16.825,16.825,0,0,0,2.783,1.157v4.238a1.719,1.719,0,0,0,1.719,1.719h6.875a1.719,1.719,0,0,0,1.719-1.719V310.73a16.825,16.825,0,0,0,2.783-1.157l3,3a1.719,1.719,0,0,0,2.43,0l4.861-4.861a1.719,1.719,0,0,0,0-2.43l-3-3a16.82,16.82,0,0,0,1.157-2.783h4.238a1.719,1.719,0,0,0,1.719-1.719v-6.875a1.719,1.719,0,0,0-1.719-1.719m-1.719,6.875h-3.833a1.719,1.719,0,0,0-1.676,1.337,13.692,13.692,0,0,1-1.765,4.252,1.719,1.719,0,0,0,.237,2.131l2.714,2.714-2.43,2.43-2.714-2.714a1.719,1.719,0,0,0-2.131-.237,13.685,13.685,0,0,1-4.252,1.774,1.719,1.719,0,0,0-1.337,1.667v3.833h-3.437v-3.833a1.719,1.719,0,0,0-1.337-1.676,13.693,13.693,0,0,1-4.252-1.765,1.719,1.719,0,0,0-2.131.237l-2.714,2.714-2.43-2.43,2.714-2.714a1.719,1.719,0,0,0,.237-2.131,13.692,13.692,0,0,1-1.765-4.252,1.719,1.719,0,0,0-1.676-1.337h-3.833v-3.438h3.833a1.719,1.719,0,0,0,1.676-1.337,13.692,13.692,0,0,1,1.765-4.252,1.719,1.719,0,0,0-.237-2.131l-2.714-2.714,2.43-2.43,2.714,2.714a1.719,1.719,0,0,0,2.13.239,13.731,13.731,0,0,1,4.254-1.767,1.719,1.719,0,0,0,1.337-1.676v-3.833h3.438v3.833a1.719,1.719,0,0,0,1.337,1.676,13.73,13.73,0,0,1,4.254,1.767,1.719,1.719,0,0,0,2.13-.239l2.714-2.714,2.43,2.43-2.714,2.714a1.719,1.719,0,0,0-.237,2.131,13.685,13.685,0,0,1,1.774,4.252,1.719,1.719,0,0,0,1.667,1.337h3.833Z" transform="translate(-238.688 -213.563)"/>
        <path id="Trazado_265921" data-name="Trazado 265921" d="M370.313,328a10.312,10.312,0,1,0,10.313,10.313A10.312,10.312,0,0,0,370.313,328m0,17.188a6.875,6.875,0,1,1,6.875-6.875,6.875,6.875,0,0,1-6.875,6.875" transform="translate(-282.656 -257.531)"/>
      </g>
    </g>
  </g>
</svg>
