<svg xmlns="http://www.w3.org/2000/svg" width="123.937" height="58.895" viewBox="0 0 123.937 58.895">
  <g id="Grupo_179533" data-name="Grupo 179533" transform="translate(-1135 -1914.105)">
    <rect id="Rect치ngulo_295623" data-name="Rect치ngulo 295623" width="123.937" height="58.895" rx="5" transform="translate(1135 1914.105)" fill="#f3f9ff"/>
    <path id="Trazado_268641" data-name="Trazado 268641" d="M30.543,5.625l3.719,9.281L37.98,5.625h1.945V17h-1.5V12.57l.141-4.781L34.832,17H33.684L29.957,7.813l.148,4.758V17h-1.5V5.625ZM41.965,12.7a4.993,4.993,0,0,1,.488-2.234A3.643,3.643,0,0,1,43.813,8.93,3.7,3.7,0,0,1,45.8,8.391a3.565,3.565,0,0,1,2.793,1.2,4.6,4.6,0,0,1,1.066,3.18v.1a5.036,5.036,0,0,1-.473,2.215,3.589,3.589,0,0,1-1.352,1.527,3.743,3.743,0,0,1-2.02.547,3.556,3.556,0,0,1-2.785-1.2A4.575,4.575,0,0,1,41.965,12.8Zm1.453.172a3.616,3.616,0,0,0,.652,2.258,2.211,2.211,0,0,0,3.5-.012,3.955,3.955,0,0,0,.648-2.418,3.61,3.61,0,0,0-.66-2.254A2.1,2.1,0,0,0,45.8,9.578a2.075,2.075,0,0,0-1.727.852A3.925,3.925,0,0,0,43.418,12.867ZM53.434,6.5V8.547h1.578V9.664H53.434v5.249a1.173,1.173,0,0,0,.211.763.888.888,0,0,0,.719.254,3.5,3.5,0,0,0,.688-.094V17a4.215,4.215,0,0,1-1.109.155,1.8,1.8,0,0,1-1.461-.586,2.517,2.517,0,0,1-.492-1.664V9.664H50.449V8.547h1.539V6.5Zm2.727,6.2a4.993,4.993,0,0,1,.488-2.234A3.643,3.643,0,0,1,58.008,8.93,3.7,3.7,0,0,1,60,8.391a3.565,3.565,0,0,1,2.793,1.2,4.6,4.6,0,0,1,1.066,3.18v.1a5.036,5.036,0,0,1-.473,2.215,3.589,3.589,0,0,1-1.352,1.527,3.743,3.743,0,0,1-2.02.547,3.556,3.556,0,0,1-2.785-1.2A4.575,4.575,0,0,1,56.16,12.8Zm1.453.172a3.616,3.616,0,0,0,.652,2.258,2.211,2.211,0,0,0,3.5-.012A3.955,3.955,0,0,0,62.41,12.7a3.61,3.61,0,0,0-.66-2.254A2.1,2.1,0,0,0,60,9.578a2.075,2.075,0,0,0-1.727.852A3.925,3.925,0,0,0,57.613,12.867ZM69.754,9.844a4.331,4.331,0,0,0-.711-.055A1.9,1.9,0,0,0,67.113,11v6H65.668V8.547h1.406l.023.977a2.251,2.251,0,0,1,2.016-1.133,1.477,1.477,0,0,1,.641.109Zm4.836,7.313a3.693,3.693,0,0,1-2.8-1.129,4.19,4.19,0,0,1-1.078-3.02v-.266A5.073,5.073,0,0,1,71.2,10.5a3.748,3.748,0,0,1,1.344-1.547,3.378,3.378,0,0,1,1.871-.559,3.166,3.166,0,0,1,2.563,1.086,4.7,4.7,0,0,1,.914,3.109v.6H72.16a3,3,0,0,0,.73,2.02,2.3,2.3,0,0,0,1.777.77,2.517,2.517,0,0,0,1.3-.312,3.259,3.259,0,0,0,.93-.828l.883.688A3.55,3.55,0,0,1,74.59,17.156Zm-.18-7.578a1.928,1.928,0,0,0-1.469.637A3.1,3.1,0,0,0,72.207,12h4.234v-.109a2.753,2.753,0,0,0-.594-1.707A1.815,1.815,0,0,0,74.41,9.578Zm10.07,5.18a1.064,1.064,0,0,0-.441-.91,4.249,4.249,0,0,0-1.539-.559,7.277,7.277,0,0,1-1.742-.562,2.479,2.479,0,0,1-.953-.781,1.869,1.869,0,0,1-.309-1.078,2.193,2.193,0,0,1,.879-1.758,3.432,3.432,0,0,1,2.246-.719,3.532,3.532,0,0,1,2.332.742,2.357,2.357,0,0,1,.895,1.9H84.395a1.3,1.3,0,0,0-.5-1.023,1.888,1.888,0,0,0-1.27-.43,1.976,1.976,0,0,0-1.234.344,1.082,1.082,0,0,0-.445.9.877.877,0,0,0,.414.789,5.1,5.1,0,0,0,1.5.508,7.8,7.8,0,0,1,1.754.578,2.558,2.558,0,0,1,1,.809,1.988,1.988,0,0,1,.324,1.152,2.163,2.163,0,0,1-.906,1.816,3.8,3.8,0,0,1-2.352.684,4.257,4.257,0,0,1-1.8-.359,2.922,2.922,0,0,1-1.223-1,2.42,2.42,0,0,1-.441-1.395h1.445a1.5,1.5,0,0,0,.582,1.152,2.258,2.258,0,0,0,1.434.426,2.331,2.331,0,0,0,1.316-.332A1.02,1.02,0,0,0,84.48,14.758Z" transform="translate(1140 1942.146)" fill="#12263f"/>
    <path id="Rect치ngulo_295624" data-name="Rect치ngulo 295624" d="M0,0H11.351a5,5,0,0,1,5,5V118.937a5,5,0,0,1-5,5H0a0,0,0,0,1,0,0V0A0,0,0,0,1,0,0Z" transform="translate(1135 1930.457) rotate(-90)" fill="#3d5075"/>
  </g>
</svg>
