<svg xmlns="http://www.w3.org/2000/svg" xmlns:xlink="http://www.w3.org/1999/xlink" width="190" height="100.304" viewBox="0 0 190 100.304">
  <defs>
    <clipPath id="clip-path">
      <rect id="Rectángulo_295864" data-name="Rectángulo 295864" width="110.974" height="100.304" fill="none"/>
    </clipPath>
  </defs>
  <g id="Grupo_179440" data-name="Grupo 179440" transform="translate(-180.001 -400)">
    <g id="Grupo_109728" data-name="Grupo 109728" transform="translate(0.001 -1082)">
      <path id="Trazado_113723" data-name="Trazado 113723" d="M-72.06,10.548c-4.477.05-6.13,3.173-2.337,4.452,6.3,2.121,12.513,4.55,18.547,7.263A177.319,177.319,0,0,1-32.831,34.648c5.278,3.394,15.486,2.36,18.155-1.823,2.056-3.221,2.858-6.957-.234-10.426-1.934-2.169-5.253-3.9-9.238-5C-45.161,11.608-61.544,10.43-72.06,10.548Z" transform="translate(382.855 1471.46)" fill="#a2e6b0" opacity="0.2"/>
      <path id="blob" d="M14.578,76.777C1.92,55.917,14.714,27.111,42.343,16.268,69.976,5.341,112.305,12.46,146.059,27.277s58.933,37.249,50.495,54.548c-8.44,17.383-50.5,29.551-90.783,29.137C65.62,110.548,27.239,97.636,14.578,76.777Z" transform="translate(170.321 1471.027)" fill="#a2e6b0" opacity="0.2"/>
    </g>
    <g id="Grupo_178821" data-name="Grupo 178821" transform="translate(-204 -211)">
      <g id="Grupo_178820" data-name="Grupo 178820" transform="translate(424.001 611)">
        <g id="Grupo_178819" data-name="Grupo 178819" transform="translate(0 0)" clip-path="url(#clip-path)">
          <path id="Trazado_267724" data-name="Trazado 267724" d="M99.026,76.618h-87.5a9.6,9.6,0,0,1-9.6-9.6V11.527a9.6,9.6,0,0,1,9.6-9.6h87.5a9.6,9.6,0,0,1,9.6,9.6V67.014a9.6,9.6,0,0,1-9.6,9.6" transform="translate(0.211 0.211)" fill="#e3f2fd"/>
          <path id="Trazado_267725" data-name="Trazado 267725" d="M65.645,28.439,46.027,23.911l4.528,19.618,5.281-5.281,6.037,6.036L66.4,39.757,60.364,33.72Z" transform="translate(5.051 2.625)" fill="#cfbdb0"/>
          <path id="Trazado_267726" data-name="Trazado 267726" d="M68.761,90.572H34.616l4.268-21.341h25.61Z" transform="translate(3.799 7.598)" fill="#48a5f0"/>
          <path id="Trazado_267727" data-name="Trazado 267727" d="M1.923,53.846v7.47a9.6,9.6,0,0,0,9.6,9.6h87.5a9.6,9.6,0,0,0,9.6-9.6v-7.47Z" transform="translate(0.211 5.91)" fill="#bfe0fa"/>
          <path id="Trazado_267728" data-name="Trazado 267728" d="M99.237,0h-87.5A11.751,11.751,0,0,0,0,11.738V67.225A11.751,11.751,0,0,0,11.738,78.963H40.079L36.665,96.036H25.61a2.134,2.134,0,1,0,0,4.268H85.365a2.134,2.134,0,1,0,0-4.268H74.31L70.895,78.963H99.237a11.751,11.751,0,0,0,11.738-11.738V11.738A11.751,11.751,0,0,0,99.237,0m-87.5,4.268h87.5a7.479,7.479,0,0,1,7.47,7.47V57.621H4.268V53.353H17.073a2.134,2.134,0,0,0,0-4.268H4.268V11.738a7.479,7.479,0,0,1,7.47-7.47M69.957,96.036H41.017l3.415-17.073H66.542Zm36.749-28.811a7.478,7.478,0,0,1-7.47,7.47h-87.5a7.478,7.478,0,0,1-7.47-7.47V61.889H106.706Z" transform="translate(0 0)"/>
          <path id="Trazado_267729" data-name="Trazado 267729" d="M50.422,66.229a4.268,4.268,0,1,0-4.268-4.268,4.272,4.272,0,0,0,4.268,4.268" transform="translate(5.065 6.332)"/>
          <path id="Trazado_267730" data-name="Trazado 267730" d="M48.686,44.221a2.134,2.134,0,0,0,3.589,1.029l3.772-3.772L60.575,46a2.131,2.131,0,0,0,3.017,0l4.528-4.527a2.135,2.135,0,0,0,0-3.018l-4.528-4.527,3.773-3.773a2.134,2.134,0,0,0-1.029-3.589L46.719,22.043a2.134,2.134,0,0,0-2.56,2.559ZM61.625,29.864l-2.559,2.559a2.135,2.135,0,0,0,0,3.019l4.527,4.527-1.508,1.509-4.528-4.528a2.134,2.134,0,0,0-3.017,0L51.98,39.509,49.086,26.971Z" transform="translate(4.84 2.414)"/>
          <path id="Trazado_267731" data-name="Trazado 267731" d="M39.638,20.54a2.134,2.134,0,0,0,3.018-3.019l-2.135-2.134A2.134,2.134,0,0,0,37.5,18.406Z" transform="translate(4.047 1.621)"/>
          <path id="Trazado_267732" data-name="Trazado 267732" d="M35.826,26.724h3.018a2.134,2.134,0,1,0,0-4.268H35.826a2.134,2.134,0,1,0,0,4.268" transform="translate(3.697 2.465)"/>
          <path id="Trazado_267733" data-name="Trazado 267733" d="M39.638,28.85,37.5,30.984A2.134,2.134,0,1,0,40.521,34l2.135-2.134a2.134,2.134,0,0,0-3.018-3.019" transform="translate(4.047 3.098)"/>
          <path id="Trazado_267734" data-name="Trazado 267734" d="M52.474,21.165a2.131,2.131,0,0,0,1.509-.625l2.134-2.134A2.134,2.134,0,1,0,53.1,15.388l-2.134,2.134a2.134,2.134,0,0,0,1.509,3.643" transform="translate(5.524 1.621)"/>
          <path id="Trazado_267735" data-name="Trazado 267735" d="M46.705,18.864a2.134,2.134,0,0,0,2.134-2.134V13.711a2.134,2.134,0,0,0-4.268,0V16.73a2.134,2.134,0,0,0,2.134,2.134" transform="translate(4.891 1.271)"/>
          <path id="Trazado_267736" data-name="Trazado 267736" d="M19.4,47.18a2.14,2.14,0,0,0,.2.37,2.132,2.132,0,0,0,.958.785,2.192,2.192,0,0,0,.4.124,2.187,2.187,0,0,0,.832,0,2.192,2.192,0,0,0,.4-.124,2.09,2.09,0,0,0,.958-.785,2.14,2.14,0,0,0,.2-.37,2,2,0,0,0,.122-.4,2.125,2.125,0,0,0-.122-1.233,2.161,2.161,0,0,0-.2-.367,2.047,2.047,0,0,0-.589-.588,2.061,2.061,0,0,0-.368-.2,2.022,2.022,0,0,0-.4-.121,2.1,2.1,0,0,0-.832,0,2.022,2.022,0,0,0-.4.121,2.061,2.061,0,0,0-.368.2,1.957,1.957,0,0,0-.325.264,2.017,2.017,0,0,0-.264.324,2.161,2.161,0,0,0-.2.367,2.1,2.1,0,0,0-.122,1.233,2,2,0,0,0,.122.4" transform="translate(2.11 4.855)"/>
        </g>
      </g>
    </g>
  </g>
</svg>
