<svg xmlns="http://www.w3.org/2000/svg" xmlns:xlink="http://www.w3.org/1999/xlink" width="198" height="198" viewBox="0 0 198 198">
  <defs>
    <filter id="Elipse_6284" x="0" y="0" width="198" height="198" filterUnits="userSpaceOnUse">
      <feOffset dy="3" input="SourceAlpha"/>
      <feGaussianBlur stdDeviation="3" result="blur"/>
      <feFlood flood-opacity="0.161"/>
      <feComposite operator="in" in2="blur"/>
      <feComposite in="SourceGraphic"/>
    </filter>
    <clipPath id="clip-path">
      <rect id="Rectángulo_295856" data-name="Rectángulo 295856" width="110" height="100.126" transform="translate(0 0)" fill="none"/>
    </clipPath>
  </defs>
  <g id="Grupo_179552" data-name="Grupo 179552" transform="translate(-701 -608.137)">
    <g transform="matrix(1, 0, 0, 1, 701, 608.14)" filter="url(#Elipse_6284)">
      <circle id="Elipse_6284-2" data-name="Elipse 6284" cx="90" cy="90" r="90" transform="translate(9 6)" fill="#fff"/>
    </g>
    <g id="Grupo_178805" data-name="Grupo 178805" transform="translate(745 654.011)">
      <g id="Grupo_178805-2" data-name="Grupo 178805" clip-path="url(#clip-path)">
        <path id="Trazado_267634" data-name="Trazado 267634" d="M87.792,20.366A3.867,3.867,0,0,0,83.925,16.5H31.5a1.719,1.719,0,0,1-1.433-.771l-2.8-4.224A3.866,3.866,0,0,0,24.048,9.77H5.479a3.867,3.867,0,0,0-3.867,3.867V75.179A6.183,6.183,0,0,0,7.8,81.364h8.394l71.6-4.26Z" fill="#cfbdb0"/>
        <path id="Trazado_267635" data-name="Trazado 267635" d="M85.245,1.611H23.5a3.867,3.867,0,0,0-3.867,3.867V25.367l34.74,1.351,34.74-1.351V5.478a3.867,3.867,0,0,0-3.867-3.867" fill="#f1fcf3"/>
        <path id="Trazado_267636" data-name="Trazado 267636" d="M89.113,5.479V25.367l-5.215.156L83.742,5.479a3.867,3.867,0,0,0-3.867-3.867h5.371a3.867,3.867,0,0,1,3.867,3.867" fill="#def6e3"/>
        <path id="Trazado_267637" data-name="Trazado 267637" d="M17.832,25.368a3.867,3.867,0,0,0-3.867,3.867v45.85A6.251,6.251,0,0,1,7.8,81.365H90.911A3.867,3.867,0,0,0,94.778,77.5V29.235a3.867,3.867,0,0,0-3.867-3.867Z" fill="#eee8e3"/>
        <path id="Trazado_267638" data-name="Trazado 267638" d="M94.778,29.235V77.5a3.868,3.868,0,0,1-3.867,3.868H85.54A3.868,3.868,0,0,0,89.407,77.5V29.235a3.867,3.867,0,0,0-3.867-3.867h5.371a3.867,3.867,0,0,1,3.867,3.867" fill="#cfbdb0"/>
        <path id="Trazado_267639" data-name="Trazado 267639" d="M42.986,73.845H23.651A2.148,2.148,0,0,1,21.5,71.7v-5.85A2.149,2.149,0,0,1,23.651,63.7H42.986a2.148,2.148,0,0,1,2.148,2.149V71.7a2.148,2.148,0,0,1-2.148,2.148" fill="#f1fcf3"/>
        <path id="Trazado_267640" data-name="Trazado 267640" d="M45.134,65.848V71.7a2.148,2.148,0,0,1-2.148,2.148H37.614A2.148,2.148,0,0,0,39.763,71.7V65.848A2.148,2.148,0,0,0,37.614,63.7h5.372a2.148,2.148,0,0,1,2.148,2.148" fill="#def6e3"/>
        <path id="Trazado_267641" data-name="Trazado 267641" d="M81.464,68.121,58.3,54.747V81.495L81.464,94.869Z" fill="#bfe0fa"/>
        <path id="Trazado_267642" data-name="Trazado 267642" d="M81.464,68.121V94.869l-4.651-2.686V65.435Z" fill="#48a5f0"/>
        <path id="Trazado_267643" data-name="Trazado 267643" d="M104.629,54.747V81.495L81.465,94.869V68.121l5.977-10.856Z" fill="#bfe0fa"/>
        <path id="Trazado_267644" data-name="Trazado 267644" d="M104.629,54.747V81.495l-4.651,2.686V55.428Z" fill="#48a5f0"/>
        <path id="Trazado_267645" data-name="Trazado 267645" d="M104.627,54.747,81.465,68.121,58.3,54.747,81.465,41.373Z" fill="#bfe0fa"/>
        <path id="Trazado_267646" data-name="Trazado 267646" d="M104.627,54.747l-4.651,2.686L76.813,44.059l4.652-2.686Z" fill="#48a5f0"/>
        <path id="Trazado_267647" data-name="Trazado 267647" d="M81.464,37.637a3.736,3.736,0,1,1-3.76,3.735,3.748,3.748,0,0,1,3.76-3.735" fill="#f2fbff"/>
        <path id="Trazado_267648" data-name="Trazado 267648" d="M104.629,51.09a3.736,3.736,0,1,1-3.76,3.735,3.748,3.748,0,0,1,3.76-3.735" fill="#f2fbff"/>
        <path id="Trazado_267649" data-name="Trazado 267649" d="M104.629,77.76a3.736,3.736,0,1,1-3.76,3.735,3.748,3.748,0,0,1,3.76-3.735" fill="#f2fbff"/>
        <path id="Trazado_267650" data-name="Trazado 267650" d="M81.464,91.134a3.736,3.736,0,1,1-3.76,3.735,3.748,3.748,0,0,1,3.76-3.735" fill="#f2fbff"/>
        <path id="Trazado_267651" data-name="Trazado 267651" d="M58.3,77.76a3.736,3.736,0,1,1-3.76,3.735A3.748,3.748,0,0,1,58.3,77.76" fill="#f2fbff"/>
        <path id="Trazado_267652" data-name="Trazado 267652" d="M58.3,51.09a3.736,3.736,0,1,1-3.76,3.735A3.748,3.748,0,0,1,58.3,51.09" fill="#f2fbff"/>
        <path id="Trazado_267653" data-name="Trazado 267653" d="M81.464,64.386a3.736,3.736,0,1,1-3.76,3.735,3.748,3.748,0,0,1,3.76-3.735" fill="#f2fbff"/>
        <path id="Trazado_267654" data-name="Trazado 267654" d="M46.746,71.7v-5.85a3.765,3.765,0,0,0-3.76-3.76H23.651a3.765,3.765,0,0,0-3.76,3.76V71.7a3.765,3.765,0,0,0,3.76,3.76H42.986a3.765,3.765,0,0,0,3.76-3.76m-23.632,0v-5.85a.538.538,0,0,1,.537-.537H42.986a.538.538,0,0,1,.537.537V71.7a.538.538,0,0,1-.537.537H23.651a.538.538,0,0,1-.537-.537"/>
        <path id="Trazado_267655" data-name="Trazado 267655" d="M21.5,34.634H32.81a1.612,1.612,0,0,0,0-3.223H21.5a1.612,1.612,0,0,0,0,3.223"/>
        <path id="Trazado_267656" data-name="Trazado 267656" d="M21.5,42.154H38.517a1.612,1.612,0,0,0,0-3.223H21.5a1.612,1.612,0,0,0,0,3.223"/>
        <path id="Trazado_267657" data-name="Trazado 267657" d="M79.34,8.118H29.4a1.612,1.612,0,0,0,0,3.223H79.34a1.612,1.612,0,0,0,0-3.223"/>
        <path id="Trazado_267658" data-name="Trazado 267658" d="M79.34,15.637H29.4a1.612,1.612,0,0,0,0,3.223H79.34a1.612,1.612,0,0,0,0-3.223"/>
        <path id="Trazado_267659" data-name="Trazado 267659" d="M106.24,76.305V59.837a5.356,5.356,0,1,0-5.172-9.1l-4.678-2.7v-18.8a5.485,5.485,0,0,0-5.479-5.478h-.187V5.478A5.484,5.484,0,0,0,85.246,0H81.974a1.611,1.611,0,0,0,0,3.222h3.272A2.259,2.259,0,0,1,87.5,5.478V23.755H21.242V5.478A2.259,2.259,0,0,1,23.5,3.222H74.454a1.611,1.611,0,0,0,0-3.222H23.5a5.485,5.485,0,0,0-5.479,5.478V8.157H5.479A5.485,5.485,0,0,0,0,13.636V75.178a7.795,7.795,0,0,0,7.8,7.8H18.625a1.611,1.611,0,0,0,0-3.222h-4.56a7.921,7.921,0,0,0,1.511-4.669V29.233a2.258,2.258,0,0,1,2.256-2.255H90.911a2.258,2.258,0,0,1,2.256,2.255V46.177l-6.462-3.731a5.365,5.365,0,1,0-10.482,0L61.861,50.739a5.356,5.356,0,1,0-5.172,9.1V76.3a5.384,5.384,0,0,0-3.5,3.447H26.144a1.612,1.612,0,0,0,0,3.223h27.02a5.4,5.4,0,0,0,8.753,2.379l14.306,8.262a5.365,5.365,0,1,0,10.483,0l14.305-8.261a5.356,5.356,0,1,0,5.229-9.049ZM12.354,29.233v45.85a4.566,4.566,0,1,1-9.131.1V13.636A2.259,2.259,0,0,1,5.479,11.38h12.54V23.755h-.187A5.484,5.484,0,0,0,12.354,29.233Zm86.9,52.173a5.317,5.317,0,0,0,.13,1.164L85.083,90.831a5.373,5.373,0,0,0-2.007-1.152V73.132a5.373,5.373,0,0,0,3.63-6.266l14.254-8.231a5.375,5.375,0,0,0,2.058,1.2V76.305A5.359,5.359,0,0,0,99.258,81.406ZM77.846,90.831,63.54,82.57a5.372,5.372,0,0,0-3.629-6.265V59.836a5.368,5.368,0,0,0,2.058-1.2l14.255,8.231a5.371,5.371,0,0,0,3.629,6.266V89.679A5.381,5.381,0,0,0,77.846,90.831Zm3.618-44.2a5.364,5.364,0,0,0,3.618-1.4L99.4,53.5a5.334,5.334,0,0,0-.032,2.332L85.081,64.082a5.418,5.418,0,0,0-7.233,0L63.557,55.831a5.345,5.345,0,0,0-.033-2.331l14.323-8.268A5.368,5.368,0,0,0,81.464,46.629Zm0,23.527a2.149,2.149,0,1,1,2.148-2.124,2.139,2.139,0,0,1-2.148,2.124m23.164-17.544a2.148,2.148,0,1,1-2.148,2.124,2.138,2.138,0,0,1,2.148-2.124M81.464,39.158a2.149,2.149,0,1,1-2.148,2.124,2.139,2.139,0,0,1,2.148-2.124M58.3,52.612a2.148,2.148,0,1,1-2.148,2.124A2.138,2.138,0,0,1,58.3,52.612m0,30.918a2.148,2.148,0,1,1,2.148-2.124A2.138,2.138,0,0,1,58.3,83.53M81.465,96.9a2.149,2.149,0,1,1,2.148-2.124A2.139,2.139,0,0,1,81.465,96.9M104.629,83.53a2.148,2.148,0,1,1,2.148-2.124,2.138,2.138,0,0,1-2.148,2.124"/>
      </g>
    </g>
  </g>
</svg>
