<svg xmlns="http://www.w3.org/2000/svg" xmlns:xlink="http://www.w3.org/1999/xlink" width="100.705" height="83.268" viewBox="0 0 100.705 83.268">
  <defs>
    <clipPath id="clip-path">
      <path id="Trazado_267723" data-name="Trazado 267723" d="M.669,0H98.775V83.268H.669Z" transform="translate(1.93)" fill="#48a5f0"/>
    </clipPath>
  </defs>
  <g id="Grupo_178815" data-name="Grupo 178815" transform="translate(1.93)">
    <g id="Enmascarar_grupo_171847" data-name="Enmascarar grupo 171847" transform="translate(-1.93)" clip-path="url(#clip-path)">
      <path id="Trazado_267681" data-name="Trazado 267681" d="M102.732,46.587v55.58a.958.958,0,0,1-.958.958H8.458a.958.958,0,0,1-.958-.958V46.587L53.727,44Z" transform="translate(-3.464 -35.569)" fill="#e3f2fd"/>
      <rect id="Rectángulo_295863" data-name="Rectángulo 295863" width="13.965" height="12.909" transform="translate(44.67 65.393)" fill="#48a5f0"/>
      <path id="Trazado_267682" data-name="Trazado 267682" d="M102.732,8.458v8.623H7.5V8.458A.958.958,0,0,1,8.458,7.5h93.316a.958.958,0,0,1,.958.958" transform="translate(-3.464 -6.063)" fill="#f5f8f9"/>
      <path id="Trazado_267683" data-name="Trazado 267683" d="M102.732,101.251v4.407a.958.958,0,0,1-.958.958H8.458a.958.958,0,0,1-.958-.958V50.078l2.815-1.759,2.55,1.759v50.215a.958.958,0,0,0,.958.958Z" transform="translate(-3.464 -39.06)" fill="#bfe0fa"/>
      <path id="Trazado_267684" data-name="Trazado 267684" d="M12.865,7.5v9.581H7.5V8.458A.958.958,0,0,1,8.458,7.5Z" transform="translate(-3.464 -6.063)" fill="#e8edf2"/>
      <path id="Trazado_267685" data-name="Trazado 267685" d="M95.711,68.993H2.4A2.4,2.4,0,0,1,0,66.6V2.4A2.4,2.4,0,0,1,2.4,0H95.711a2.4,2.4,0,0,1,2.4,2.4V66.6a2.4,2.4,0,0,1-2.4,2.4M2.874,66.119H95.232V2.874H2.874Z" transform="translate(2.599)" fill="#48a5f0"/>
      <path id="Trazado_267686" data-name="Trazado 267686" d="M92.886,30.437A1.438,1.438,0,1,1,91.447,29h0a1.438,1.438,0,0,1,1.437,1.437" transform="translate(-70.164 -23.443)" fill="#fee97d"/>
      <path id="Trazado_267687" data-name="Trazado 267687" d="M122.886,30.437A1.438,1.438,0,1,1,121.447,29h0a1.438,1.438,0,0,1,1.437,1.437" transform="translate(-94.415 -23.443)" fill="#bbf49b"/>
      <path id="Trazado_267688" data-name="Trazado 267688" d="M62.886,30.437A1.438,1.438,0,1,1,61.447,29h0a1.438,1.438,0,0,1,1.437,1.437" transform="translate(-45.912 -23.443)" fill="#fe99a0"/>
      <path id="Trazado_267689" data-name="Trazado 267689" d="M208.024,403.846H183.689l-4.093-.353a.958.958,0,0,1-.958-.958c0-3.492,2.2-5.826,5.687-5.826l5.288-.145h13.046a6.323,6.323,0,0,1,6.323,6.323.958.958,0,0,1-.958.958" transform="translate(-141.809 -320.578)" fill="#48a5f0"/>
      <path id="Trazado_267690" data-name="Trazado 267690" d="M187.072,396.564a6.322,6.322,0,0,0-6.323,6.323v.958h-4.79a.958.958,0,0,1-.958-.958,6.32,6.32,0,0,1,6.323-6.323Z" transform="translate(-138.868 -320.577)" fill="#3984c0"/>
      <path id="Trazado_267691" data-name="Trazado 267691" d="M189.559,162.341l-.8-10.21-6.252-5.4-9.41-4.6c-.081.153,0,.4,0,.572v19.444a1.062,1.062,0,0,0,.49.9L176.226,165l11.963,7.632a1.088,1.088,0,0,0,.567.168Z" transform="translate(-137.298 -114.902)" fill="#a2e6b0"/>
      <path id="Trazado_267692" data-name="Trazado 267692" d="M204.751,100.13l-8.22,6.466-7.626,3.527-15.661-9.993a1.077,1.077,0,0,1,.365-.393l14.73-9.4a1.064,1.064,0,0,1,1.137,0l14.908,9.4A1.077,1.077,0,0,1,204.751,100.13Z" transform="translate(-137.449 -72.894)" fill="#a2e6b0"/>
      <path id="Trazado_267693" data-name="Trazado 267693" d="M270.952,142.642v19.7a1.06,1.06,0,0,1-.495.9l-14.908,9.4a1.065,1.065,0,0,1-.571.163V152.13l15.846-9.993a1.049,1.049,0,0,1,.127.505" transform="translate(-203.522 -114.902)" fill="#a2e6b0"/>
      <path id="Trazado_267694" data-name="Trazado 267694" d="M249.582,211.6a1.437,1.437,0,0,1-1.437-1.437V189.605a1.437,1.437,0,0,1,2.874,0v20.553A1.437,1.437,0,0,1,249.582,211.6Z" transform="translate(-197.998 -152.113)" fill="#f5f8f9"/>
      <path id="Trazado_267695" data-name="Trazado 267695" d="M183.466,127.086a1.437,1.437,0,0,1-.773-.226l-15.672-10a1.437,1.437,0,0,1-.664-1.212V94.939a1.437,1.437,0,0,1,.664-1.212l15.672-10a1.437,1.437,0,0,1,1.539,0l15.855,10a1.437,1.437,0,0,1,.671,1.216v20.712a1.437,1.437,0,0,1-.671,1.216l-15.855,10A1.435,1.435,0,0,1,183.466,127.086Zm-14.235-12.223,14.239,9.084,14.413-9.089V95.732L183.47,86.643l-14.239,9.084Zm30.089.788h0Z" transform="translate(-131.881 -67.503)" fill="#f5f8f9"/>
      <path id="Trazado_267696" data-name="Trazado 267696" d="M183.465,148.554a1.437,1.437,0,0,1-.773-.226l-15.672-10a1.437,1.437,0,0,1,1.546-2.423l14.9,9.508,15.084-9.512a1.437,1.437,0,1,1,1.533,2.431l-15.855,10A1.434,1.434,0,0,1,183.465,148.554Z" transform="translate(-131.88 -109.683)" fill="#f5f8f9"/>
      <path id="Trazado_267697" data-name="Trazado 267697" d="M247.307,79.048a2.783,2.783,0,0,1-.076.646,2.715,2.715,0,0,1-2.741,2,2.492,2.492,0,0,1-2.6-2.612,2.7,2.7,0,0,1,1.987-2.74,2.781,2.781,0,0,1,3.427,2.7Z" transform="translate(-192.944 -61.656)" fill="#e8edf2"/>
      <path id="Trazado_267698" data-name="Trazado 267698" d="M246.629,80.018a2.779,2.779,0,1,1-3.352-3.348,2.78,2.78,0,0,0,2.7,3.426,2.709,2.709,0,0,0,.649-.078" transform="translate(-192.341 -61.979)" fill="#d9e7ec"/>
      <path id="Trazado_267699" data-name="Trazado 267699" d="M247.308,183.224a2.782,2.782,0,0,1-.076.646,2.715,2.715,0,0,1-2.741,2,2.492,2.492,0,0,1-2.6-2.612,2.7,2.7,0,0,1,1.987-2.74,2.781,2.781,0,0,1,3.427,2.7" transform="translate(-192.945 -145.87)" fill="#e8edf2"/>
      <path id="Trazado_267700" data-name="Trazado 267700" d="M246.63,184.194a2.779,2.779,0,1,1-3.352-3.348,2.78,2.78,0,0,0,2.7,3.426,2.71,2.71,0,0,0,.649-.078" transform="translate(-192.341 -146.194)" fill="#d9e7ec"/>
      <path id="Trazado_267701" data-name="Trazado 267701" d="M165.456,131.136a2.782,2.782,0,0,1-.076.646,2.715,2.715,0,0,1-2.741,2,2.492,2.492,0,0,1-2.6-2.612,2.7,2.7,0,0,1,1.987-2.74,2.781,2.781,0,0,1,3.427,2.7" transform="translate(-126.776 -103.763)" fill="#e8edf2"/>
      <path id="Trazado_267702" data-name="Trazado 267702" d="M164.778,132.106a2.779,2.779,0,1,1-3.352-3.348,2.78,2.78,0,0,0,2.7,3.426,2.713,2.713,0,0,0,.649-.078" transform="translate(-126.173 -104.086)" fill="#d9e7ec"/>
      <path id="Trazado_267703" data-name="Trazado 267703" d="M165.456,238.619a2.783,2.783,0,0,1-.076.646,2.715,2.715,0,0,1-2.741,2,2.492,2.492,0,0,1-2.6-2.612,2.7,2.7,0,0,1,1.987-2.74,2.781,2.781,0,0,1,3.427,2.7" transform="translate(-126.776 -190.651)" fill="#e8edf2"/>
      <path id="Trazado_267704" data-name="Trazado 267704" d="M164.778,239.589a2.779,2.779,0,1,1-3.352-3.348,2.78,2.78,0,0,0,2.7,3.426A2.71,2.71,0,0,0,164.778,239.589Z" transform="translate(-126.173 -190.974)" fill="#d9e7ec"/>
      <path id="Trazado_267705" data-name="Trazado 267705" d="M247.308,290.707a2.782,2.782,0,0,1-.076.646,2.715,2.715,0,0,1-2.741,2,2.492,2.492,0,0,1-2.6-2.612,2.7,2.7,0,0,1,1.987-2.74,2.781,2.781,0,0,1,3.427,2.7" transform="translate(-192.945 -232.758)" fill="#e8edf2"/>
      <path id="Trazado_267706" data-name="Trazado 267706" d="M246.63,291.676a2.779,2.779,0,1,1-3.352-3.348,2.78,2.78,0,0,0,2.7,3.426A2.7,2.7,0,0,0,246.63,291.676Z" transform="translate(-192.341 -233.081)" fill="#d9e7ec"/>
      <path id="Trazado_267707" data-name="Trazado 267707" d="M329.987,238.619a2.781,2.781,0,0,1-.076.646,2.715,2.715,0,0,1-2.741,2,2.492,2.492,0,0,1-2.6-2.612,2.7,2.7,0,0,1,1.987-2.74,2.781,2.781,0,0,1,3.427,2.7Z" transform="translate(-259.781 -190.651)" fill="#e8edf2"/>
      <path id="Trazado_267708" data-name="Trazado 267708" d="M329.31,239.589a2.779,2.779,0,1,1-3.352-3.348,2.78,2.78,0,0,0,2.7,3.426A2.71,2.71,0,0,0,329.31,239.589Z" transform="translate(-259.179 -190.974)" fill="#d9e7ec"/>
      <path id="Trazado_267709" data-name="Trazado 267709" d="M329.987,131.136a2.781,2.781,0,0,1-.076.646,2.715,2.715,0,0,1-2.741,2,2.492,2.492,0,0,1-2.6-2.612,2.7,2.7,0,0,1,1.987-2.74,2.781,2.781,0,0,1,3.427,2.7Z" transform="translate(-259.781 -103.763)" fill="#e8edf2"/>
      <path id="Trazado_267710" data-name="Trazado 267710" d="M329.31,132.106a2.779,2.779,0,1,1-3.352-3.348,2.78,2.78,0,0,0,2.7,3.426,2.713,2.713,0,0,0,.649-.078" transform="translate(-259.179 -104.086)" fill="#d9e7ec"/>
      <path id="Trazado_267711" data-name="Trazado 267711" d="M60.087,218.415H49.427a1.437,1.437,0,1,1,0-2.874H59.492L62.031,213a1.437,1.437,0,1,1,2.032,2.032l-2.96,2.96a1.436,1.436,0,0,1-1.016.421" transform="translate(-36.195 -171.848)" fill="#3d5075"/>
      <path id="Trazado_267712" data-name="Trazado 267712" d="M57.715,258.9H49.427a1.437,1.437,0,0,1,0-2.874h8.288a1.437,1.437,0,0,1,0,2.874" transform="translate(-36.195 -206.971)" fill="#3d5075"/>
      <path id="Trazado_267713" data-name="Trazado 267713" d="M55.51,286.9H50.9a1.437,1.437,0,1,1,0-2.874H55.51a1.437,1.437,0,1,1,0,2.874" transform="translate(-37.382 -229.606)" fill="#3d5075"/>
      <path id="Trazado_267714" data-name="Trazado 267714" d="M63.047,154.9a1.433,1.433,0,0,1-1.016-.421l-2.539-2.539H49.427a1.437,1.437,0,1,1,0-2.874h10.66a1.437,1.437,0,0,1,1.016.421l2.96,2.96a1.437,1.437,0,0,1-1.016,2.453" transform="translate(-36.195 -120.504)" fill="#3d5075"/>
      <path id="Trazado_267715" data-name="Trazado 267715" d="M57.715,123.941H49.427a1.437,1.437,0,1,1,0-2.874h8.288a1.437,1.437,0,0,1,0,2.874" transform="translate(-36.195 -97.869)" fill="#3d5075"/>
      <path id="Trazado_267716" data-name="Trazado 267716" d="M55.51,95.941H50.9a1.437,1.437,0,1,1,0-2.874H55.51a1.437,1.437,0,1,1,0,2.874" transform="translate(-37.382 -75.234)" fill="#3d5075"/>
      <path id="Trazado_267717" data-name="Trazado 267717" d="M396.987,218.416h-10.66a1.437,1.437,0,0,1-1.016-.421l-2.96-2.96A1.437,1.437,0,1,1,384.383,213l2.539,2.539h10.064a1.437,1.437,0,1,1,0,2.874Z" transform="translate(-306.148 -171.848)" fill="#3d5075"/>
      <path id="Trazado_267718" data-name="Trazado 267718" d="M419.481,258.9h-8.288a1.437,1.437,0,0,1,0-2.874h8.288a1.437,1.437,0,0,1,0,2.874" transform="translate(-328.642 -206.971)" fill="#3d5075"/>
      <path id="Trazado_267719" data-name="Trazado 267719" d="M433.509,286.9h-4.615a1.437,1.437,0,1,1,0-2.874h4.615a1.437,1.437,0,1,1,0,2.874" transform="translate(-342.951 -229.606)" fill="#3d5075"/>
      <path id="Trazado_267720" data-name="Trazado 267720" d="M383.367,154.9a1.437,1.437,0,0,1-1.016-2.453l2.96-2.96a1.438,1.438,0,0,1,1.016-.421h10.66a1.437,1.437,0,1,1,0,2.874H386.923l-2.539,2.539A1.433,1.433,0,0,1,383.367,154.9Z" transform="translate(-306.148 -120.505)" fill="#3d5075"/>
      <path id="Trazado_267721" data-name="Trazado 267721" d="M419.481,123.941h-8.288a1.437,1.437,0,0,1,0-2.874h8.288a1.437,1.437,0,0,1,0,2.874" transform="translate(-328.642 -97.869)" fill="#3d5075"/>
      <path id="Trazado_267722" data-name="Trazado 267722" d="M433.509,95.941h-4.615a1.437,1.437,0,1,1,0-2.874h4.615a1.437,1.437,0,1,1,0,2.874" transform="translate(-342.951 -75.234)" fill="#3d5075"/>
    </g>
  </g>
</svg>
