<svg xmlns="http://www.w3.org/2000/svg" xmlns:xlink="http://www.w3.org/1999/xlink" width="198" height="198" viewBox="0 0 198 198">
  <defs>
    <filter id="Elipse_6286" x="0" y="0" width="198" height="198" filterUnits="userSpaceOnUse">
      <feOffset dy="3" input="SourceAlpha"/>
      <feGaussianBlur stdDeviation="3" result="blur"/>
      <feFlood flood-opacity="0.161"/>
      <feComposite operator="in" in2="blur"/>
      <feComposite in="SourceGraphic"/>
    </filter>
    <clipPath id="clip-path">
      <rect id="Rectángulo_295855" data-name="Rectángulo 295855" width="110" height="109.951" transform="translate(0 0)" fill="none"/>
    </clipPath>
  </defs>
  <g id="Grupo_179553" data-name="Grupo 179553" transform="translate(-1115 -608.137)">
    <g transform="matrix(1, 0, 0, 1, 1115, 608.14)" filter="url(#Elipse_6286)">
      <circle id="Elipse_6286-2" data-name="Elipse 6286" cx="90" cy="90" r="90" transform="translate(9 6)" fill="#fff"/>
    </g>
    <g id="Grupo_178804" data-name="Grupo 178804" transform="translate(1159.035 650.137)">
      <g id="Grupo_178804-2" data-name="Grupo 178804" clip-path="url(#clip-path)">
        <path id="Trazado_267617" data-name="Trazado 267617" d="M63.737,85.914v-.791H46.263v.791a21.935,21.935,0,0,1-6.174,15.255l-2.767,2.859H72.678l-2.767-2.859a21.934,21.934,0,0,1-6.174-15.255" fill="#e2e5ea"/>
        <path id="Trazado_267618" data-name="Trazado 267618" d="M69.911,101.168a21.933,21.933,0,0,1-6.174-15.255v-.791H49.88v.791a21.933,21.933,0,0,0,6.174,15.255l2.767,2.859H72.679Z" fill="#bbc2cf"/>
        <path id="Trazado_267619" data-name="Trazado 267619" d="M102.47,88.4H7.531a5.919,5.919,0,0,1-5.919-5.919V19.732a5.92,5.92,0,0,1,5.919-5.92H102.47a5.92,5.92,0,0,1,5.919,5.92V82.485A5.919,5.919,0,0,1,102.47,88.4" fill="#e3f2fd"/>
        <path id="Trazado_267620" data-name="Trazado 267620" d="M89.295,76.61V20.37A5.194,5.194,0,0,0,87.774,16.7L74.209,3.132a5.2,5.2,0,0,0-3.673-1.521H26.756A6.051,6.051,0,0,0,20.7,7.662V76.61Z" fill="#f8f5f3"/>
        <path id="Trazado_267621" data-name="Trazado 267621" d="M87.774,16.7,75.259,4.183V76.611H89.295V20.371A5.194,5.194,0,0,0,87.774,16.7Z" fill="#eee8e3"/>
        <path id="Trazado_267622" data-name="Trazado 267622" d="M102.47,13.813H88.434a5.919,5.919,0,0,1,5.919,5.919V82.485a5.92,5.92,0,0,1-5.919,5.92H102.47a5.92,5.92,0,0,0,5.919-5.92V19.732a5.919,5.919,0,0,0-5.919-5.919" fill="#bfe0fa"/>
        <path id="Trazado_267623" data-name="Trazado 267623" d="M1.611,82.485A5.919,5.919,0,0,0,7.53,88.4h94.939a5.92,5.92,0,0,0,5.92-5.919V76.611H1.611Z" fill="#bbc2cf"/>
        <path id="Trazado_267624" data-name="Trazado 267624" d="M102.469,88.4a5.919,5.919,0,0,0,5.919-5.919V76.61H94.352v5.875A5.919,5.919,0,0,1,88.433,88.4Z" fill="#3d5075"/>
        <path id="Trazado_267625" data-name="Trazado 267625" d="M75.848,108.339h-41.7a4.312,4.312,0,1,1,0-8.624h41.7a4.312,4.312,0,1,1,0,8.624" fill="#bbc2cf"/>
        <path id="Trazado_267626" data-name="Trazado 267626" d="M75.848,99.715H63.424a2.7,2.7,0,0,1,2.7,2.7v5.924h9.724a4.312,4.312,0,1,0,0-8.624Z" fill="#3d5075"/>
        <path id="Trazado_267627" data-name="Trazado 267627" d="M87.774,16.7,74.209,3.133a5.206,5.206,0,0,0-1.521-1.055V15a3.219,3.219,0,0,0,3.22,3.22H88.829A5.206,5.206,0,0,0,87.774,16.7" fill="#cfbdb0"/>
        <path id="Trazado_267628" data-name="Trazado 267628" d="M70.9,55.033V39.416a2.373,2.373,0,0,0-1.187-2.056L56.187,29.551a2.377,2.377,0,0,0-2.373,0L40.289,37.36A2.375,2.375,0,0,0,39.1,39.416V55.033a2.374,2.374,0,0,0,1.187,2.055L53.814,64.9a2.373,2.373,0,0,0,2.373,0l13.525-7.809A2.37,2.37,0,0,0,70.9,55.033" fill="#def6e3"/>
        <path id="Trazado_267629" data-name="Trazado 267629" d="M55,47.224l15.58-8.995a2.364,2.364,0,0,0-.868-.869L56.187,29.551a2.374,2.374,0,0,0-2.374,0L40.288,37.36a2.364,2.364,0,0,0-.868.869Z" fill="#a2e6b0"/>
        <path id="Trazado_267630" data-name="Trazado 267630" d="M102.47,12.2h-9.4a1.611,1.611,0,0,0,0,3.223h9.4a4.313,4.313,0,0,1,4.308,4.308V75H90.907V20.37a6.764,6.764,0,0,0-1.993-4.812L75.348,1.993A6.761,6.761,0,0,0,70.536,0H26.757a7.672,7.672,0,0,0-7.663,7.663V75H3.223V19.732a4.313,4.313,0,0,1,4.308-4.308h5.641a1.611,1.611,0,0,0,0-3.223H7.531A7.54,7.54,0,0,0,0,19.732V82.485a7.54,7.54,0,0,0,7.531,7.531h36.7A20.284,20.284,0,0,1,40.588,98.1H34.152a5.924,5.924,0,0,0,0,11.847h41.7a5.924,5.924,0,1,0,0-11.847H69.412a20.269,20.269,0,0,1-3.644-8.088h36.7A7.539,7.539,0,0,0,110,82.485V19.732A7.539,7.539,0,0,0,102.47,12.2ZM85.406,16.608h-9.5A1.611,1.611,0,0,1,74.3,15V5.5ZM22.317,7.663a4.444,4.444,0,0,1,4.44-4.44c46.651.014,43.813-.036,44.32.04V15a4.836,4.836,0,0,0,4.831,4.831H87.644c.077.508.026-3.055.04,55.169H22.317Zm56.232,96.364a2.7,2.7,0,0,1-2.7,2.7h-41.7a2.7,2.7,0,1,1,0-5.4h41.7a2.7,2.7,0,0,1,2.7,2.7M65.528,98.1H44.473a23.506,23.506,0,0,0,3.041-8.088H62.487A23.485,23.485,0,0,0,65.528,98.1M102.47,86.793H7.531a4.313,4.313,0,0,1-4.308-4.308V78.222H106.778v4.263a4.313,4.313,0,0,1-4.308,4.308"/>
        <path id="Trazado_267631" data-name="Trazado 267631" d="M29.84,12.859h18.9a1.612,1.612,0,1,0,0-3.223H29.84a1.612,1.612,0,0,0,0,3.223"/>
        <path id="Trazado_267632" data-name="Trazado 267632" d="M50.351,18.8a1.611,1.611,0,0,0-1.611-1.611H29.84a1.611,1.611,0,0,0,0,3.222h18.9A1.611,1.611,0,0,0,50.351,18.8"/>
        <path id="Trazado_267633" data-name="Trazado 267633" d="M70.517,35.965,56.992,28.156a4,4,0,0,0-3.984,0L39.483,35.965a4,4,0,0,0-1.993,3.451V55.033a4,4,0,0,0,1.992,3.451l13.526,7.809a4,4,0,0,0,3.984,0l13.526-7.809a4,4,0,0,0,1.992-3.451V39.416A4,4,0,0,0,70.517,35.965Zm-15.9-5.018a.763.763,0,0,1,.762,0l12.3,7.1L55,45.364,42.324,38.045ZM41.094,55.693a.765.765,0,0,1-.381-.66v-14.2l12.675,7.319V62.791Zm27.812,0-12.295,7.1V48.155l12.676-7.319v14.2a.765.765,0,0,1-.381.66"/>
      </g>
    </g>
  </g>
</svg>
