<svg id="Grupo_179132" data-name="Grupo 179132" xmlns="http://www.w3.org/2000/svg" xmlns:xlink="http://www.w3.org/1999/xlink" width="50.035" height="50" viewBox="0 0 50.035 50">
  <defs>
    <clipPath id="clip-path">
      <rect id="Rectángulo_295831" data-name="Rectángulo 295831" width="50.035" height="50" fill="#3d5075"/>
    </clipPath>
  </defs>
  <g id="Grupo_178779" data-name="Grupo 178779" clip-path="url(#clip-path)">
    <path id="Trazado_267592" data-name="Trazado 267592" d="M356.032,215.258v-.806a2.419,2.419,0,1,1,2.419,2.419h5.972A6.448,6.448,0,1,0,352,214.452a6.587,6.587,0,0,0,.057.806Z" transform="translate(-316.516 -187.032)" fill="#3d5075"/>
    <rect id="Rectángulo_295829" data-name="Rectángulo 295829" width="9.705" height="1.613" transform="translate(36.063 41.888) rotate(-85.583)" fill="#3d5075"/>
    <rect id="Rectángulo_295830" data-name="Rectángulo 295830" width="1.618" height="1.613" transform="matrix(0.077, -0.997, 0.997, 0.077, 35.815, 45.117)" fill="#3d5075"/>
    <path id="Trazado_267593" data-name="Trazado 267593" d="M50.035,50,49.16,29.032H44.713a3.193,3.193,0,0,0,.448-1.613,3.226,3.226,0,1,0-6.452,0H33.931l-.124,1.613H22.581a2.422,2.422,0,0,1-2.419-2.419v-.806H35.7a6.421,6.421,0,0,1,.66-1.613H26.613V20.968a2.422,2.422,0,0,0,2.419-2.419V16.935a2.416,2.416,0,0,0-1.613-2.271V11.29h7.258a4.844,4.844,0,0,1,4.839,4.839v5.314a6.424,6.424,0,0,1,1.613-.419V16.129a6.459,6.459,0,0,0-6.452-6.452H27.419V8.065h8.065a7.266,7.266,0,0,1,7.258,7.258v5.7a6.39,6.39,0,0,1,1.613.419v-6.12a8.881,8.881,0,0,0-8.871-8.871H27.419V5.645A2.422,2.422,0,0,0,25,3.226H20.161A2.416,2.416,0,0,0,17.89,4.839H12.1A2.416,2.416,0,0,0,9.826,6.452H8.871V1.613h1.613V0H2.419V1.613H4.032V6.452A2.422,2.422,0,0,0,1.613,8.871v5.794A2.416,2.416,0,0,0,0,16.935v1.613a2.416,2.416,0,0,0,1.613,2.271v1.761a1.615,1.615,0,0,0,1.613,1.613H4.839v4.839a1.615,1.615,0,0,0-1.613,1.613v1.613a1.615,1.615,0,0,0,1.613,1.613V37.1H9.677V33.871a1.615,1.615,0,0,0,1.613-1.613V30.645a1.615,1.615,0,0,0-1.613-1.613V24.194H11.29A1.615,1.615,0,0,0,12.9,22.581V20.968h7.258v3.226H18.548v2.419a4.037,4.037,0,0,0,4.032,4.032h11.1L32.194,50ZM25,24.194H21.774V20.968H25ZM19.355,5.645a.807.807,0,0,1,.806-.806H25a.807.807,0,0,1,.806.806v8.871H19.355ZM12.1,6.452h5.645v8.065H11.29V7.258a.807.807,0,0,1,.806-.806M5.645,1.613H7.258V6.452H5.645ZM4.032,8.065H9.677v6.452H3.226V8.871a.807.807,0,0,1,.806-.806M8.065,35.484H6.452V33.871H8.065Zm1.614-3.226H4.839V30.645H9.677ZM8.065,29.032H6.452V24.194H8.065Zm3.226-6.452H3.226V20.968H11.29ZM2.419,19.355a.807.807,0,0,1-.806-.806V16.935a.807.807,0,0,1,.806-.806H26.613a.807.807,0,0,1,.806.806v1.613a.807.807,0,0,1-.806.806Zm39.516,6.452a1.609,1.609,0,0,1,.212,3.2l-1.825-1.216v-.375a1.615,1.615,0,0,1,1.613-1.613m-2.664,3.226,2.419,1.613h5.923l.739,17.742H33.935l1.489-19.355Z" fill="#3d5075"/>
  </g>
</svg>
